<?xml version="1.0" standalone="no"?>
<!DOCTYPE svg PUBLIC "-//W3C//DTD SVG 20010904//EN"
 "http://www.w3.org/TR/2001/REC-SVG-20010904/DTD/svg10.dtd">
<svg version="1.0" xmlns="http://www.w3.org/2000/svg"
 width="260.000000pt" height="262.000000pt" viewBox="0 0 260.000000 262.000000"
 preserveAspectRatio="xMidYMid meet">

<g transform="translate(0.000000,262.000000) scale(0.100000,-0.100000)"
fill="#000000" stroke="none">
<path d="M1170 2574 c-14 -2 -59 -9 -100 -15 -91 -13 -254 -66 -341 -109 -360
-180 -620 -528 -690 -920 -17 -94 -17 -344 0 -430 116 -611 637 -1050 1246
-1050 333 0 647 131 893 373 333 328 454 825 311 1273 -140 440 -515 773 -967
860 -77 15 -305 27 -352 18z m355 -69 c44 -9 116 -29 160 -45 343 -118 631
-407 748 -750 47 -138 62 -233 62 -395 0 -107 -5 -174 -18 -235 -105 -491
-466 -852 -957 -957 -117 -25 -353 -25 -470 0 -489 105 -853 469 -956 957 -25
118 -25 354 -1 470 51 236 156 436 319 606 196 204 456 332 748 368 71 9 287
-3 365 -19z"/>
<path d="M1455 1751 c-11 -19 0 -24 70 -32 75 -9 152 -45 189 -89 14 -17 26
-35 26 -38 0 -4 -25 -20 -56 -36 -31 -16 -67 -44 -81 -61 l-26 -33 -55 26
c-42 19 -77 26 -147 30 -109 5 -175 -8 -239 -48 -42 -27 -45 -28 -51 -10 -10
32 -84 91 -159 126 -183 87 -458 52 -585 -75 -128 -128 -81 -311 104 -397 195
-91 453 -64 589 61 22 20 43 32 47 28 5 -5 -6 -37 -24 -72 -24 -48 -32 -81
-35 -132 l-4 -68 -42 -3 c-30 -2 -42 -8 -44 -21 -3 -16 3 -18 60 -15 l63 3 6
86 c4 60 13 99 29 132 13 26 25 47 27 47 4 0 86 -40 91 -45 1 -1 -7 -28 -18
-60 -11 -32 -20 -82 -20 -112 l0 -53 -45 0 c-32 0 -45 -4 -45 -14 0 -19 10
-22 74 -18 l54 4 4 81 c3 45 11 96 19 112 13 29 14 28 19 -45 l5 -75 40 -3
c67 -6 71 -42 4 -42 -28 0 -39 -4 -39 -15 0 -13 11 -15 63 -13 l62 3 2 64 c1
71 22 156 34 144 4 -4 9 -37 11 -73 l3 -65 58 0 c64 0 79 18 18 23 l-39 3 -6
61 c-4 33 -5 63 -2 66 3 3 28 12 55 22 49 16 50 16 55 -4 3 -12 6 -46 6 -78
l0 -56 50 -7 c53 -7 70 -2 70 21 0 10 -12 14 -39 14 l-38 0 -7 61 c-4 33 -10
68 -13 77 -4 9 15 -2 43 -25 99 -84 227 -114 335 -78 67 23 152 104 168 161
36 131 -22 268 -145 340 -43 25 -43 26 -30 53 34 66 113 118 193 127 79 9 93
14 93 31 0 14 -10 15 -70 10 -110 -9 -204 -64 -246 -143 l-19 -35 -70 7 c-38
4 -72 12 -74 17 -11 31 -98 107 -142 126 -60 26 -173 39 -184 22z m-791 -243
c64 -98 69 -193 15 -318 l-23 -52 -50 5 c-70 7 -111 24 -98 40 17 20 42 118
42 161 0 43 -29 118 -57 149 -10 11 -13 21 -7 27 9 9 106 38 131 39 7 1 28
-23 47 -51z m172 21 c47 -43 74 -111 74 -183 0 -66 -28 -164 -53 -185 -11 -9
-128 -33 -134 -27 -1 1 9 36 23 77 36 105 32 201 -13 289 l-33 62 55 -4 c40
-3 62 -11 81 -29z m1047 -19 c12 0 17 -8 17 -30 0 -35 26 -42 38 -9 8 20 10
20 52 -13 194 -148 75 -408 -163 -358 -211 43 -284 295 -114 390 45 26 67 21
67 -15 0 -18 5 -25 20 -25 16 0 20 7 20 36 0 33 2 36 23 30 12 -3 30 -6 40 -6z
m-912 -32 c53 -40 72 -80 65 -145 -4 -48 -11 -62 -43 -95 -20 -21 -40 -38 -44
-38 -3 0 0 24 8 53 18 64 12 170 -11 215 -20 38 -15 40 25 10z m-523 -20 c29
-32 42 -71 42 -126 0 -52 -27 -132 -44 -132 -17 1 -52 33 -80 75 -41 60 -34
117 22 178 31 33 33 33 60 5z m1016 -28 c36 -11 68 -25 71 -30 4 -6 8 -38 9
-73 2 -34 6 -75 10 -92 3 -16 3 -24 0 -17 -10 21 -41 13 -88 -23 -40 -30 -54
-35 -99 -34 -44 0 -49 2 -34 12 51 33 53 35 39 49 -10 10 -22 8 -65 -15 -46
-24 -57 -26 -85 -16 -38 13 -38 15 -12 37 13 11 17 22 11 30 -7 11 -14 11 -42
-3 -32 -17 -33 -17 -51 5 -10 12 -18 37 -18 55 0 106 186 166 354 115z m-94
-352 c-1 -7 -7 -35 -14 -63 -11 -43 -17 -50 -40 -53 -24 -3 -26 0 -26 31 0 19
-3 49 -6 66 l-6 31 46 0 c30 0 46 -4 46 -12z"/>
<path d="M1759 1409 c-8 -16 -8 -28 0 -46 22 -48 90 -5 70 45 -11 29 -54 30
-70 1z"/>
<path d="M1946 1394 c-9 -8 -16 -24 -16 -34 0 -22 26 -50 45 -50 16 0 35 30
35 54 0 16 -26 46 -40 46 -5 0 -16 -7 -24 -16z"/>
<path d="M1787 1197 c-12 -33 103 -50 172 -26 36 13 36 35 0 32 -66 -7 -107
-7 -135 0 -24 6 -33 4 -37 -6z"/>
</g>
</svg>
