<?xml version="1.0" standalone="no"?>
<!DOCTYPE svg PUBLIC "-//W3C//DTD SVG 20010904//EN"
 "http://www.w3.org/TR/2001/REC-SVG-20010904/DTD/svg10.dtd">
<svg version="1.0" xmlns="http://www.w3.org/2000/svg"
 width="1128.000000pt" height="1504.000000pt" viewBox="0 0 1128.000000 1504.000000"
 preserveAspectRatio="xMidYMid meet">

<g transform="translate(0.000000,1504.000000) scale(0.100000,-0.100000)"
fill="#000000" stroke="none">
<path d="M2997 15020 c-3 -10 0 -21 6 -23 6 -2 8 -11 4 -20 -8 -20 -37 -12
-38 12 0 17 -26 -64 -36 -114 -3 -16 -12 -39 -19 -50 -16 -23 -19 -59 -4 -50
6 3 10 3 11 -2 5 -61 2 -84 -11 -88 -22 -7 -61 -96 -49 -111 5 -7 7 -24 3 -38
-3 -15 -2 -26 4 -26 9 0 19 26 28 68 1 8 16 26 32 40 36 33 43 54 24 68 -12 9
-12 15 3 43 9 18 14 39 11 47 -3 8 -2 13 3 9 5 -3 21 10 35 27 14 18 33 40 41
49 8 9 15 23 15 32 0 10 6 17 14 17 8 0 18 9 21 20 3 11 10 20 14 20 4 0 13
12 20 27 11 23 10 25 -3 14 -20 -17 -36 -6 -36 25 0 32 -21 31 -43 -3 l-18
-28 4 28 c3 21 0 27 -13 27 -10 0 -20 -9 -23 -20z m73 -70 c0 -5 -5 -10 -11
-10 -5 0 -7 5 -4 10 3 6 8 10 11 10 2 0 4 -4 4 -10z m-71 -27 c0 -25 -1 -26
-9 -8 -12 27 -12 35 0 35 6 0 10 -12 9 -27z m-39 -42 c0 -6 -4 -13 -10 -16 -5
-3 -10 1 -10 9 0 9 5 16 10 16 6 0 10 -4 10 -9z"/>
<path d="M3147 15033 c-12 -12 -7 -22 8 -17 8 4 15 10 15 15 0 11 -14 12 -23
2z"/>
<path d="M3309 15019 c-5 -11 -15 -19 -22 -19 -12 0 -29 -28 -57 -95 -7 -16
-19 -42 -26 -56 -7 -14 -11 -29 -7 -33 3 -3 1 -6 -5 -6 -7 0 -12 7 -12 15 0 9
-6 12 -15 9 -8 -4 -15 -12 -15 -20 0 -8 7 -14 15 -14 24 0 17 -17 -10 -24 -15
-4 -30 -17 -35 -31 -12 -32 -63 -82 -78 -77 -7 2 -18 -3 -26 -10 -11 -12 -11
-21 -2 -49 12 -34 11 -37 -21 -70 -25 -25 -32 -40 -29 -59 4 -20 -2 -31 -33
-55 -26 -21 -36 -36 -33 -48 4 -14 0 -18 -14 -16 -33 6 -44 -10 -44 -61 0 -27
-4 -51 -9 -54 -5 -3 -12 -22 -15 -41 -4 -19 -11 -35 -16 -35 -6 0 -10 -11 -10
-24 0 -13 -5 -26 -10 -28 -12 -4 -40 -101 -40 -140 0 -23 4 -28 25 -28 14 0
25 5 25 10 0 6 9 10 20 10 31 0 24 -16 -17 -41 -21 -13 -39 -27 -41 -31 -6
-14 -30 -9 -36 7 -3 9 -11 15 -18 14 -26 -3 -38 1 -38 15 0 18 27 28 34 13 3
-7 3 -2 0 11 -3 13 0 29 6 37 7 8 9 15 6 15 -4 0 0 10 8 22 9 12 16 35 16 51
0 16 7 30 15 33 10 4 13 13 9 26 -4 13 -1 24 7 29 11 7 11 11 1 21 -10 10 -14
8 -18 -10 -4 -12 -9 -22 -13 -22 -3 0 -7 -14 -8 -32 -3 -35 -68 -178 -82 -178
-8 0 -25 -49 -21 -59 1 -2 -2 -7 -7 -10 -16 -12 -33 -51 -33 -77 0 -14 -9 -37
-20 -51 -11 -14 -20 -34 -20 -43 0 -10 -7 -23 -15 -30 -12 -10 -15 -9 -16 6 0
11 -6 -1 -13 -26 -10 -37 -10 -47 1 -56 18 -15 6 -44 -18 -44 -22 0 -32 -20
-33 -66 -1 -22 -4 -29 -12 -23 -8 6 -13 -9 -18 -52 -3 -34 -10 -67 -15 -73 -4
-6 -11 -44 -14 -85 -3 -41 -11 -77 -18 -81 -6 -4 -12 -32 -12 -61 -1 -30 -3
-44 -5 -31 -2 12 -7 22 -12 22 -9 0 -25 -189 -16 -197 3 -4 6 18 7 48 l0 54
19 -43 c11 -23 26 -45 35 -48 25 -10 17 -27 -10 -20 l-25 6 3 -100 c2 -56 -1
-103 -5 -106 -13 -8 14 -53 28 -47 9 3 14 -2 14 -13 0 -11 3 -29 6 -41 5 -18
2 -21 -23 -19 -29 2 -30 1 -26 -39 8 -95 14 -116 33 -110 14 4 17 0 14 -22
-11 -79 -11 -120 1 -138 13 -20 14 -100 1 -112 -3 -3 -1 -13 6 -20 6 -8 13
-54 15 -101 3 -48 8 -96 13 -107 5 -11 11 -38 13 -60 3 -35 4 -34 5 12 2 44 5
51 18 46 13 -5 15 -17 11 -72 -3 -36 -7 -75 -9 -86 -2 -11 2 -19 7 -18 6 1 11
-17 13 -39 1 -22 9 -50 17 -62 8 -11 15 -28 15 -38 0 -10 5 -18 10 -18 6 0 10
-6 10 -14 0 -8 5 -16 11 -18 6 -2 14 -44 18 -93 5 -50 9 -76 10 -59 0 18 8 34
16 37 17 7 24 -2 27 -37 1 -14 6 -26 11 -26 5 0 5 -9 2 -20 -6 -19 31 -132 55
-170 8 -13 11 -12 23 4 11 15 16 16 22 6 5 -8 4 -11 -2 -7 -6 4 -13 1 -16 -7
-3 -8 1 -17 9 -20 16 -6 19 -52 4 -61 -15 -9 -12 -25 5 -25 8 0 15 -7 15 -15
0 -9 9 -15 25 -15 15 0 25 -6 25 -15 0 -8 18 -33 40 -55 22 -23 40 -51 40 -63
0 -15 10 -26 30 -35 29 -13 41 -32 19 -32 -6 0 -1 -14 11 -30 17 -24 25 -28
36 -20 15 13 34 5 34 -13 0 -17 154 -167 171 -167 10 0 10 3 1 12 -14 14 -16
58 -3 58 5 0 21 -16 35 -35 15 -19 32 -35 37 -35 27 0 63 62 54 93 -11 37 -44
105 -54 112 -6 3 -8 12 -4 21 3 8 -1 22 -10 32 -8 9 -21 35 -28 57 -8 22 -26
61 -41 86 -16 25 -28 56 -28 67 0 11 -4 24 -10 27 -5 3 -10 15 -10 26 0 10 -5
19 -11 19 -5 0 -7 5 -4 10 3 6 3 15 -1 21 -5 8 -9 8 -14 -1 -4 -6 -7 2 -6 19
1 32 20 42 30 16 3 -8 13 -15 22 -15 12 0 15 -6 11 -21 -4 -17 -3 -19 6 -10
16 16 47 14 53 -4 4 -8 11 -15 16 -15 6 0 7 8 4 17 -6 15 8 32 25 33 10 0 6
-34 -4 -41 -5 -4 10 -5 32 -3 39 2 55 -9 29 -19 -7 -3 -2 -5 12 -5 14 1 35 -2
48 -6 21 -7 23 -5 20 16 -3 25 12 28 65 14 17 -5 32 -4 41 3 11 9 15 9 19 -1
4 -10 6 -10 6 0 1 6 12 12 26 12 20 0 25 -5 25 -25 0 -14 -4 -25 -10 -25 -19
0 11 -46 38 -58 60 -25 93 -50 77 -56 -8 -3 -21 -3 -29 0 -9 3 -21 -5 -31 -20
-9 -13 -24 -27 -33 -29 -12 -3 -10 -5 6 -6 12 0 22 -6 22 -12 0 -5 -4 -8 -9
-5 -10 6 -8 -51 2 -61 4 -3 2 -14 -4 -24 -6 -13 -6 -19 1 -19 5 0 10 -11 10
-24 0 -18 -5 -23 -22 -22 -13 0 -26 5 -29 10 -9 12 -31 -3 -26 -18 3 -7 -9
-20 -26 -30 -18 -9 -37 -28 -44 -41 -10 -22 -9 -25 9 -25 27 0 78 -31 78 -47
0 -18 10 -16 27 5 13 15 13 15 4 -4 -8 -17 -7 -25 4 -34 12 -10 15 -9 15 8 0
13 12 25 34 36 46 22 66 20 66 -4 0 -11 5 -20 11 -20 7 0 8 -11 4 -30 -4 -19
-3 -30 4 -30 6 0 17 -12 23 -26 10 -21 9 -27 -3 -35 -10 -7 -8 -8 11 -7 22 3
25 -1 22 -24 -2 -19 2 -28 12 -28 17 0 26 -21 26 -61 0 -18 4 -28 10 -24 5 3
10 -3 10 -14 0 -10 5 -21 11 -23 7 -2 4 -16 -9 -38 -34 -59 -33 -73 9 -73 45
0 69 9 69 25 0 7 11 36 24 64 18 40 30 52 51 56 21 4 29 1 32 -13 8 -30 20
-13 17 24 -3 32 -1 33 27 29 30 -4 30 -4 23 37 -4 28 -3 41 5 41 6 0 11 7 11
15 0 8 -5 15 -11 15 -7 0 -9 8 -4 23 11 35 5 120 -11 138 -11 12 -11 18 -1 28
9 11 9 14 0 18 -18 7 -16 33 2 33 8 0 15 -7 15 -15 0 -12 8 -14 40 -9 43 7 55
-8 24 -31 -9 -6 -15 -18 -12 -25 3 -10 10 -8 26 8 12 12 27 22 32 22 6 0 10 8
10 18 0 10 7 28 16 40 12 17 19 20 34 12 19 -10 17 -50 -2 -50 -5 0 -7 -4 -3
-9 3 -6 17 -4 33 5 15 7 33 14 40 14 6 0 12 5 12 10 0 6 7 10 15 10 8 0 15 -5
15 -11 0 -6 7 -9 15 -5 9 3 15 0 15 -10 0 -11 -6 -14 -16 -10 -8 3 -12 2 -9
-4 8 -13 -52 -73 -65 -65 -17 10 -42 -15 -30 -30 7 -8 1 -18 -20 -33 -16 -12
-32 -22 -35 -22 -4 0 -13 -7 -21 -15 -18 -17 -34 -20 -34 -5 0 18 -18 10 -23
-10 -3 -11 -1 -18 3 -15 5 3 11 1 15 -5 5 -8 -14 -15 -37 -11 -3 0 -5 -7 -3
-17 2 -9 4 -21 5 -27 0 -5 8 -1 18 10 20 24 50 28 68 10 7 -7 12 -14 11 -16
-1 -3 4 2 11 10 6 8 9 24 6 34 -5 17 -4 17 15 -2 25 -25 34 -26 51 -7 6 8 18
12 26 9 8 -3 14 1 14 11 0 9 5 16 10 16 6 0 10 -6 10 -14 0 -8 6 -17 13 -19 6
-3 2 -6 -10 -6 -16 -1 -23 -7 -23 -21 0 -13 7 -20 18 -20 23 1 54 25 44 36 -4
4 1 2 11 -5 15 -12 21 -9 18 12 0 4 7 7 17 8 14 0 14 2 -3 9 -11 5 -18 9 -15
10 20 6 61 12 92 13 34 1 36 3 23 17 -8 9 -15 20 -15 24 0 10 34 3 42 -9 4 -5
10 -2 14 8 4 10 2 23 -5 30 -17 17 -13 27 8 27 11 0 23 5 27 11 3 6 17 8 30 5
29 -8 32 10 4 19 -11 3 -20 11 -20 16 0 6 -4 8 -9 5 -5 -3 -11 4 -14 15 -4 13
-10 18 -18 13 -8 -4 -10 -3 -5 4 11 18 49 15 42 -3 -3 -8 -1 -15 5 -15 5 0 12
7 15 15 4 8 10 15 16 15 5 0 6 -4 3 -10 -3 -5 -3 -10 2 -10 11 0 40 20 30 20
-4 0 0 11 8 24 16 23 15 24 -4 19 -22 -6 -29 12 -8 21 8 3 7 8 -6 16 -14 9
-16 19 -11 46 5 26 2 35 -10 40 -24 9 -20 24 7 24 29 0 49 40 29 60 -12 11
-13 10 -7 -9 3 -12 2 -21 -4 -21 -13 0 -32 35 -29 52 2 6 -3 13 -9 14 -7 1
-17 2 -23 3 -14 2 -12 33 5 55 9 12 22 17 35 13 14 -3 24 1 31 14 5 11 15 17
21 13 5 -4 14 0 19 7 7 11 9 10 9 -3 0 -10 5 -18 10 -18 6 0 10 9 10 21 0 15
6 20 23 19 46 -4 55 -1 50 20 -3 11 -1 20 5 20 6 0 12 -8 14 -17 3 -15 4 -15
20 1 10 10 23 14 30 10 9 -6 9 -3 -1 9 -12 15 -10 17 20 17 30 0 31 -1 14 -13
-12 -10 -14 -16 -7 -21 7 -4 12 -5 12 -3 0 3 16 1 35 -3 34 -8 35 -7 35 20 0
16 5 32 10 35 6 3 10 14 10 24 0 10 7 18 14 18 12 0 13 -5 4 -20 -7 -15 -7
-22 3 -28 10 -6 11 -9 2 -9 -20 0 -15 -17 7 -23 11 -3 20 -2 20 2 0 11 39 51
50 51 5 0 7 -8 3 -17 -4 -13 0 -11 11 4 13 17 21 20 39 14 12 -5 21 -14 20
-20 -4 -14 24 -15 32 -1 3 6 16 10 28 10 12 1 33 7 46 14 l23 13 -26 26 c-34
34 -33 38 5 24 29 -11 32 -10 59 23 16 19 30 29 30 21 0 -8 -8 -20 -17 -27
-16 -12 -15 -13 13 -14 17 0 37 7 44 15 7 9 20 13 28 10 9 -3 18 -2 21 2 8 11
79 63 86 63 3 0 2 -12 -1 -26 -5 -20 -3 -25 7 -22 8 3 13 12 11 22 -2 9 2 16
8 16 6 0 8 5 5 10 -13 21 7 31 31 16 27 -19 34 -20 34 -6 0 6 -7 10 -15 10 -8
0 -15 7 -15 15 0 8 7 15 15 15 24 0 30 -4 27 -17 -2 -7 4 -13 13 -13 9 0 14 4
10 9 -3 5 3 12 14 16 13 4 17 12 13 27 -4 15 -2 19 8 13 7 -4 16 -2 21 6 8 11
12 10 21 -6 12 -19 13 -18 18 10 5 28 8 30 48 27 30 -2 42 1 42 10 1 8 8 4 19
-9 23 -27 46 -31 36 -5 -5 14 -4 15 6 5 20 -20 38 -16 34 7 -2 11 0 20 5 20 5
0 7 7 4 15 -4 10 0 15 14 15 11 0 25 -7 32 -15 7 -8 19 -15 26 -15 8 0 14 7
14 15 0 17 9 19 30 6 21 -14 33 -2 18 17 -7 9 -8 13 -3 10 6 -4 17 -3 25 3 12
7 11 9 -6 9 -23 0 -44 18 -44 38 0 10 4 11 13 5 6 -5 18 -8 25 -7 6 1 28 2 47
3 24 1 35 6 35 17 0 8 -4 13 -9 10 -7 -5 -8 13 -2 47 2 10 41 9 41 -2 0 -5 20
-8 45 -7 25 0 45 4 45 7 0 13 41 17 46 5 6 -17 34 -16 34 1 0 18 19 17 26 -2
4 -8 19 -15 34 -15 41 0 80 -17 80 -35 0 -8 5 -15 10 -15 6 0 10 6 10 14 0 13
20 26 41 26 17 0 9 -17 -13 -28 -20 -10 -20 -11 -3 -9 14 1 19 -4 20 -22 0
-34 17 -36 37 -4 l17 28 1 -27 c0 -19 5 -28 16 -28 11 0 13 -6 9 -19 -3 -10 0
-25 7 -32 7 -8 15 -34 17 -59 4 -54 8 -63 27 -56 8 3 14 -1 14 -8 0 -8 7 -16
15 -20 8 -3 15 -11 15 -18 1 -18 35 -58 50 -58 8 0 9 -10 5 -30 -4 -19 -3 -30
4 -30 6 0 11 -7 11 -16 0 -8 -5 -12 -10 -9 -14 9 -7 -114 7 -123 16 -11 25
-63 13 -77 -8 -10 -8 -15 1 -21 8 -5 10 -3 5 7 -4 8 -1 6 8 -5 9 -11 14 -32
11 -55 -4 -44 14 -101 32 -101 8 0 14 -13 15 -32 0 -18 2 -40 2 -48 1 -10 10
-14 29 -12 26 3 37 -11 17 -23 -6 -4 -5 -11 4 -20 7 -8 14 -31 15 -52 1 -21 3
-54 4 -73 2 -19 -2 -44 -9 -55 -8 -13 -10 -25 -4 -35 8 -12 10 -12 15 3 6 13
11 14 26 6 23 -12 26 -34 3 -25 -12 5 -14 1 -9 -15 4 -12 8 -27 10 -33 11 -41
19 -56 29 -53 17 6 15 67 -2 67 -10 0 -12 7 -8 23 3 12 6 26 6 30 0 5 4 6 9 2
5 -3 12 -1 16 5 3 5 16 10 28 10 21 0 21 0 -2 -16 -13 -9 -19 -19 -13 -23 15
-9 19 -96 4 -96 -6 0 -11 -4 -9 -10 1 -5 5 -9 10 -8 4 2 7 -4 7 -12 0 -18 -27
-20 -33 -2 -2 6 -8 8 -13 4 -4 -4 -3 -17 4 -27 7 -11 12 -28 12 -39 0 -10 7
-25 16 -32 15 -12 16 -10 10 18 -6 26 -4 34 13 43 21 11 29 40 11 40 -5 0 -10
5 -10 10 0 6 10 10 23 10 19 0 22 6 23 45 1 32 -2 45 -12 45 -8 0 -14 5 -14
11 0 7 10 9 28 5 15 -4 22 -3 16 1 -7 5 -8 16 -4 28 7 18 8 18 15 -8 4 -15 5
-41 3 -57 -3 -17 -1 -30 4 -30 10 0 11 -34 1 -44 -12 -11 -12 -109 -2 -123 7
-7 6 -14 -1 -18 -5 -3 -10 -13 -10 -21 0 -12 3 -12 24 1 15 10 22 23 21 40 -4
29 20 24 28 -6 7 -25 27 -25 27 1 0 23 18 27 26 5 4 -8 10 -15 16 -15 5 0 6 5
3 10 -8 13 5 13 25 0 11 -7 12 -10 2 -10 -19 0 -11 -72 8 -78 13 -3 13 -2 0 7
-10 7 -11 11 -2 11 7 0 13 14 13 33 1 25 3 22 10 -18 5 -27 10 -68 10 -90 1
-22 7 -52 13 -66 6 -14 10 -64 8 -111 -3 -78 -5 -87 -25 -93 -22 -6 -22 -6 -2
-14 28 -12 34 -107 8 -127 -13 -9 -20 -9 -25 -1 -10 16 -22 1 -15 -18 9 -21
37 -19 37 3 0 13 2 14 9 3 7 -11 10 -11 15 0 5 11 7 11 12 2 3 -7 18 -13 32
-12 25 0 25 1 6 9 -24 10 -38 36 -23 46 7 4 6 10 -1 19 -11 13 -7 64 11 155
l12 55 13 -38 c11 -33 11 -41 0 -52 -8 -8 -14 -33 -14 -57 -1 -25 2 -37 7 -29
6 10 10 9 15 -5 3 -9 0 -27 -9 -40 -14 -22 -13 -25 11 -49 29 -29 45 -25 26 6
-13 20 -7 44 8 34 4 -3 4 12 -1 32 -9 41 2 63 32 63 10 0 23 9 29 21 15 28 5
37 -12 10 -13 -22 -38 -29 -38 -11 0 6 -5 9 -12 8 -22 -5 -19 27 4 37 13 6 23
17 23 25 1 26 29 80 42 80 8 0 13 14 13 36 0 19 7 42 15 51 11 10 14 25 9 48
-3 19 -1 35 5 39 5 4 7 14 4 23 -4 10 -2 14 5 9 14 -8 23 7 24 44 1 16 7 31
15 34 18 7 16 23 -5 42 -16 13 -17 22 -8 65 9 47 36 70 36 32 0 -15 -2 -16
-10 -3 -8 13 -10 12 -10 -2 0 -10 7 -18 15 -18 8 0 15 6 15 13 0 8 3 7 10 -3
5 -8 12 -11 16 -7 4 3 1 13 -6 22 -8 10 -9 15 -1 15 6 0 11 -5 11 -11 0 -5 5
-7 10 -4 8 5 7 11 -1 21 -6 8 -8 21 -4 31 15 34 13 41 -11 47 -13 4 -24 13
-24 21 0 19 19 19 26 0 10 -24 34 -18 34 9 0 13 7 26 15 30 8 3 15 12 15 21 0
8 3 14 8 14 18 -3 32 2 32 11 0 21 -29 8 -60 -26 -23 -27 -35 -33 -43 -25 -8
8 -6 16 6 29 9 10 17 28 17 39 0 25 36 68 45 53 3 -5 11 -10 16 -10 6 0 1 12
-10 26 -19 24 -19 54 0 54 5 0 9 7 9 15 0 20 10 19 26 -2 12 -16 13 -7 11 60
-1 50 2 80 10 85 12 8 12 66 0 78 -4 4 -2 14 5 21 6 8 11 32 10 54 -2 23 2 39
8 39 7 0 9 16 5 48 -5 38 -3 51 13 67 16 17 17 23 5 33 -15 15 -17 32 -4 32 5
0 16 -7 25 -15 17 -17 36 -20 36 -5 0 6 -6 10 -14 10 -8 0 -17 7 -20 16 -4 11
-2 15 8 11 9 -4 16 4 20 25 3 17 4 33 2 35 -8 8 -46 -18 -46 -31 0 -8 -7 -16
-15 -20 -9 -3 -15 0 -15 8 0 8 7 17 16 20 10 4 14 14 11 26 -4 17 -2 18 14 9
18 -9 19 -7 13 16 -3 14 -2 25 2 24 31 -5 36 1 19 27 -9 14 -14 29 -10 32 4 4
11 -1 16 -11 12 -20 39 -23 39 -3 0 25 24 36 58 27 23 -7 32 -6 36 5 3 9 -1
14 -14 14 -25 0 -26 27 -2 33 13 4 11 5 -5 6 -13 0 -23 6 -23 12 0 7 10 9 26
6 19 -3 24 -1 20 10 -3 8 -6 18 -6 23 0 5 -8 10 -17 13 -10 2 -1 4 19 3 36 -2
68 -16 34 -16 -9 0 -15 -4 -11 -10 12 -20 33 2 32 34 -1 22 -6 32 -14 29 -7
-3 -13 -1 -13 5 0 11 18 11 38 -1 6 -5 12 -4 12 2 0 5 12 11 27 13 18 2 31 13
42 35 9 18 22 33 29 33 21 0 13 -31 -13 -52 -14 -11 -22 -24 -19 -29 3 -6 12
-5 21 3 12 10 17 9 24 -5 16 -28 30 -19 16 10 -9 20 -9 27 0 30 7 3 10 10 7
18 -3 8 4 16 17 20 21 7 21 9 6 20 -19 13 -23 35 -7 35 6 0 10 7 10 15 0 8 7
15 15 15 8 0 15 -4 15 -10 0 -5 -4 -10 -10 -10 -5 0 -10 -9 -10 -20 0 -11 4
-20 9 -20 10 0 27 39 23 53 -3 13 15 8 28 -8 11 -13 9 -19 -10 -35 -27 -23
-21 -34 21 -36 22 -1 29 3 29 17 0 21 15 25 24 7 5 -10 7 -10 12 0 3 6 13 12
22 12 13 0 11 -4 -6 -16 -12 -8 -20 -20 -16 -25 3 -6 17 1 31 15 20 21 22 27
12 39 -7 7 -24 11 -38 9 -15 -3 -23 -2 -19 2 3 4 12 8 20 10 7 1 19 5 26 10 7
4 16 5 19 2 4 -3 1 -6 -6 -6 -9 0 -8 -4 3 -15 18 -18 37 -20 33 -3 -1 7 5 12
13 13 25 1 60 16 60 25 0 5 -7 13 -16 18 -13 7 -14 13 -5 31 7 12 17 21 24 19
22 -4 68 12 62 22 -3 6 0 10 7 11 7 0 4 4 -7 9 -19 8 -19 9 3 9 12 1 22 6 22
11 0 6 11 10 24 10 28 0 52 26 48 52 -2 10 2 18 7 18 6 0 11 7 11 15 0 8 -4
15 -9 15 -5 0 -11 7 -15 15 -12 32 13 13 30 -22 18 -36 19 -37 22 -13 4 30 17
46 26 31 4 -6 2 -11 -3 -11 -6 0 -11 -7 -11 -15 0 -8 7 -15 15 -15 8 0 15 8
15 18 0 21 18 42 37 42 19 0 16 -28 -4 -33 -12 -3 -9 -5 7 -6 30 -1 50 15 50
41 0 10 5 18 10 18 6 0 10 -4 10 -9 0 -9 30 -24 36 -18 2 2 -10 19 -26 37 -17
19 -30 38 -30 43 0 5 -7 4 -15 -3 -12 -10 -15 -10 -15 4 0 21 29 21 46 -1 14
-18 22 -13 38 22 3 6 11 2 20 -9 8 -10 20 -15 27 -11 8 6 5 13 -12 26 -13 10
-19 19 -13 19 7 0 15 7 18 16 3 8 2 12 -4 9 -14 -8 -13 -2 5 31 9 17 11 30 5
32 -16 6 17 32 39 32 21 0 40 26 35 48 -1 7 0 8 3 2 3 -8 9 -7 18 0 17 14 67
9 73 -7 2 -9 -7 -13 -27 -13 -39 0 -60 -32 -36 -56 8 -8 15 -20 15 -25 0 -6 9
-7 22 -3 22 6 22 6 3 -12 -13 -13 -20 -15 -23 -6 -2 6 -10 12 -18 12 -9 0 -13
4 -10 9 7 11 -18 33 -27 24 -11 -10 -8 -25 3 -18 6 3 10 2 10 -3 0 -16 -13
-22 -26 -11 -8 7 -14 7 -19 -1 -3 -5 -2 -10 4 -10 5 0 8 -17 6 -39 -3 -37 -2
-39 36 -50 28 -9 39 -17 39 -31 0 -11 -5 -20 -11 -20 -15 0 -39 26 -32 34 4 3
-1 6 -10 6 -9 0 -16 -3 -16 -7 4 -22 -3 -33 -18 -33 -14 0 -13 -4 6 -21 17
-16 21 -28 16 -48 -3 -14 -9 -36 -12 -48 -4 -18 -1 -23 16 -23 27 0 27 -16 1
-23 -12 -3 -20 -14 -20 -27 0 -11 -4 -18 -10 -15 -5 3 -10 1 -10 -4 0 -6 4
-11 8 -11 5 0 9 -7 9 -15 0 -19 -6 -19 -28 1 -10 9 -16 21 -13 27 2 7 -5 18
-16 25 -18 11 -20 10 -20 -18 0 -22 4 -28 15 -24 9 4 15 0 15 -10 0 -9 7 -16
15 -16 8 0 15 -7 15 -15 0 -8 5 -15 10 -15 12 0 30 41 23 53 -2 4 1 7 7 7 6 0
8 6 4 13 -4 6 -4 9 1 5 4 -4 9 -24 11 -44 2 -21 9 -41 15 -45 7 -4 9 -16 6
-28 -3 -15 0 -21 10 -21 9 0 13 6 10 14 -3 8 5 18 19 25 22 10 24 9 19 -12 -8
-34 -9 -89 -2 -117 4 -14 9 -34 11 -45 1 -11 6 -28 11 -38 12 -29 -14 -158
-34 -165 -8 -3 -11 0 -8 5 7 12 -10 40 -19 31 -4 -4 1 -19 10 -32 18 -29 6
-42 -24 -26 -22 12 -27 22 -7 14 8 -3 14 2 14 11 0 14 -8 15 -46 10 -33 -4
-52 -2 -66 9 -19 15 -19 15 5 10 22 -4 22 -3 -3 7 -25 10 -30 8 -43 -10 -14
-20 -41 -31 -30 -12 3 4 1 22 -4 40 -5 19 -5 29 1 26 5 -4 19 -3 31 1 l23 7
-25 10 c-14 5 -46 11 -72 13 -51 4 -52 2 -39 -45 l7 -25 27 28 c17 17 27 22
27 13 0 -18 -32 -47 -53 -47 -18 0 -13 -26 6 -33 7 -2 4 -3 -5 -2 -12 2 -18
-3 -18 -15 0 -14 5 -17 23 -12 21 5 21 5 5 -12 -10 -10 -18 -22 -18 -27 0 -5
-5 -9 -11 -9 -5 0 -7 5 -4 10 10 17 -4 11 -25 -10 -11 -11 -20 -24 -20 -29 0
-5 -6 -11 -12 -13 -7 -3 -2 -7 10 -10 18 -5 25 -1 32 15 5 12 9 16 9 10 1 -7
7 -13 14 -13 7 0 14 -12 15 -26 2 -21 -1 -24 -18 -19 -12 4 -20 2 -20 -5 0 -7
12 -10 27 -8 21 2 28 -2 30 -17 2 -11 0 -14 -3 -7 -3 6 -18 12 -32 12 -22 -1
-24 -2 -11 -10 11 -7 15 -20 13 -42 -3 -24 -1 -29 6 -18 9 13 14 7 11 -12 0
-5 5 -8 11 -8 7 0 20 -5 28 -10 13 -8 12 -11 -5 -25 -19 -16 -19 -16 8 -10 21
4 28 2 24 -7 -2 -7 -14 -13 -26 -12 -14 0 -21 -5 -21 -18 0 -16 3 -17 20 -8
15 8 26 7 42 -1 15 -8 18 -14 10 -17 -7 -2 -19 2 -27 8 -21 18 -20 -6 1 -27 8
-9 13 -24 11 -34 -3 -11 -1 -19 4 -19 5 0 9 10 10 23 0 12 3 16 6 10 2 -7 12
-13 20 -13 9 0 27 -12 40 -26 22 -24 23 -27 7 -39 -16 -11 -16 -16 -1 -72 21
-74 21 -72 -3 -66 -11 3 -20 12 -20 19 0 8 -4 14 -9 14 -6 0 -7 -10 -5 -22 3
-13 6 -29 6 -36 1 -7 10 -10 22 -7 12 3 15 2 8 -1 -6 -3 -12 -15 -12 -26 0
-13 -10 -24 -30 -31 -21 -8 -28 -16 -25 -28 3 -10 0 -21 -8 -26 -19 -11 -27
-39 -15 -51 7 -7 6 -22 -2 -46 -9 -28 -9 -40 0 -50 8 -11 8 -16 0 -21 -7 -5
-9 -21 -5 -46 5 -29 3 -39 -7 -39 -10 0 -10 -2 0 -8 19 -12 27 -79 12 -97 -10
-12 -10 -15 4 -15 20 0 21 -24 0 -44 -9 -9 -11 -16 -4 -16 7 0 10 -14 8 -37
-3 -35 -6 -38 -38 -43 -26 -4 -35 -10 -36 -25 -2 -42 -4 -47 -19 -41 -10 4
-15 -1 -15 -15 0 -11 -4 -18 -9 -14 -13 7 -41 -52 -34 -71 3 -9 13 -14 24 -11
11 3 19 1 19 -4 0 -5 -5 -9 -10 -9 -18 0 -6 -63 17 -88 13 -13 20 -28 17 -33
-3 -5 10 -9 28 -8 18 0 27 3 20 6 -6 2 -9 9 -6 14 3 6 12 2 19 -8 10 -13 16
-15 26 -6 12 9 48 14 101 14 9 0 24 9 34 20 9 10 26 19 37 19 14 0 18 5 14 19
-3 14 0 17 14 14 14 -4 18 -1 14 9 -6 14 36 58 55 58 6 0 10 6 10 13 0 8 22
37 50 67 27 29 52 60 55 69 5 18 34 48 83 87 17 14 29 30 26 36 -4 7 2 7 17 3
21 -7 22 -6 10 8 -12 15 -15 15 -37 -1 -13 -9 -24 -23 -24 -30 0 -23 -40 7
-40 30 0 12 3 19 6 15 3 -3 15 3 27 13 11 11 24 17 29 14 4 -3 8 0 8 6 0 6 -7
13 -15 17 -14 5 -14 8 2 25 16 18 18 18 30 2 19 -26 16 -3 -3 24 -8 12 -10 22
-5 22 6 0 11 -4 11 -9 0 -15 33 -22 41 -9 4 7 11 9 15 5 4 -4 -1 -16 -10 -26
-17 -19 -17 -19 4 -14 12 3 25 1 29 -4 3 -6 17 -14 30 -18 22 -7 23 -5 17 19
-6 24 -5 26 13 17 11 -6 22 -16 24 -23 4 -9 6 -8 6 3 1 9 17 21 41 29 41 13
44 18 40 58 -1 12 4 22 11 22 7 0 9 -3 6 -7 -9 -9 12 -33 29 -33 8 0 14 9 14
19 0 11 5 23 10 26 6 3 10 14 10 23 0 10 10 22 22 27 31 14 48 51 48 107 0 34
5 50 18 57 14 9 15 12 2 20 -8 5 -18 7 -22 5 -4 -3 -8 1 -8 8 0 8 -3 9 -8 3
-9 -13 -52 -17 -52 -5 0 6 7 10 16 10 24 0 11 24 -15 28 -12 2 -27 14 -33 27
-6 13 -16 21 -23 19 -7 -3 -16 -1 -20 5 -3 6 4 15 17 20 15 6 18 11 8 12 -8 1
-19 3 -25 4 -5 2 -17 3 -25 4 -9 1 -1 10 18 21 34 21 42 44 17 54 -10 3 -15
-1 -15 -14 0 -21 -17 -36 -28 -25 -4 4 -1 10 6 12 6 3 12 10 12 18 0 7 7 18
16 26 13 10 17 10 24 -2 9 -14 13 -16 52 -18 20 -1 20 -2 5 -19 -11 -12 -13
-22 -7 -32 8 -12 10 -11 10 6 0 27 30 54 59 54 12 0 20 4 16 9 -3 5 -1 12 5
16 5 3 10 -1 10 -9 0 -10 6 -13 17 -9 11 4 14 3 9 -5 -5 -8 2 -12 19 -12 25 0
27 3 20 28 -3 15 -11 28 -16 30 -15 6 -10 32 7 32 11 0 13 6 9 20 -3 10 -1 28
5 40 9 17 8 20 -11 20 -20 0 -20 1 -6 23 15 24 12 77 -4 77 -16 0 -9 53 9 66
16 12 15 13 -5 14 -15 0 -21 5 -17 14 3 9 -3 17 -15 21 -24 7 -28 25 -6 25 18
0 20 16 4 26 -6 3 -14 1 -18 -5 -5 -8 -12 -7 -26 2 -12 10 -15 18 -9 28 5 8 9
19 9 24 1 6 6 9 13 7 17 -3 15 15 -3 22 -8 3 -15 12 -15 20 0 7 -7 17 -16 20
-22 8 -22 8 -26 -16 -2 -12 -10 -23 -18 -25 -9 -3 -11 -1 -5 4 15 11 13 23 -9
56 -10 15 -19 38 -18 52 0 22 -5 25 -34 25 -22 0 -40 -7 -51 -20 -18 -20 -39
-28 -28 -10 3 6 -1 7 -9 4 -10 -4 -16 -1 -16 7 0 11 -2 11 -9 -1 -6 -8 -7 -18
-5 -22 3 -4 1 -8 -5 -8 -17 0 -24 22 -10 32 11 8 10 8 -4 4 -10 -3 -20 -6 -23
-6 -2 0 -1 -7 2 -15 7 -17 -11 -21 -21 -5 -3 6 -19 10 -35 10 -16 0 -33 6 -37
14 -4 8 -24 16 -43 18 -29 3 -36 8 -44 36 -8 28 -13 33 -33 29 -13 -2 -23 0
-23 4 0 5 -7 9 -15 9 -8 0 -15 5 -15 11 0 7 10 9 25 5 14 -4 25 -2 25 3 0 13
-25 20 -49 14 -12 -3 -21 -1 -21 6 0 6 10 11 23 11 20 1 20 2 4 11 -10 6 -25
8 -33 5 -8 -3 -14 -2 -14 3 0 5 9 11 20 14 20 5 28 27 10 27 -24 0 -7 18 20
22 39 6 47 -6 18 -26 -12 -9 -17 -16 -11 -16 6 0 14 -8 16 -17 3 -11 5 -7 6
10 1 26 4 28 33 25 21 -2 33 1 33 9 0 7 6 18 13 25 11 11 15 10 25 -3 7 -9 18
-14 25 -12 14 5 17 43 2 43 -5 0 -10 5 -10 11 0 8 4 8 13 1 6 -5 30 -10 52
-10 34 0 36 2 17 9 -13 5 -20 13 -17 19 3 6 -4 14 -17 19 -22 9 -22 10 5 10
43 1 66 17 60 41 -3 11 0 27 7 35 7 8 9 15 4 15 -5 0 -9 38 -9 85 0 47 -3 85
-7 85 -5 0 -8 11 -8 24 0 13 -7 29 -15 36 -15 13 -11 35 6 25 5 -4 9 1 9 11 0
11 -6 15 -20 11 -16 -4 -20 0 -20 21 0 15 4 22 8 16 4 -6 23 -10 42 -10 31 0
35 3 36 28 l1 28 -23 -25 c-13 -14 -26 -25 -29 -25 -13 0 10 54 32 76 24 24
26 25 45 7 19 -17 20 -17 35 2 11 14 17 16 20 8 6 -16 33 -17 33 -1 0 6 6 3
14 -7 14 -19 15 -19 35 -1 20 18 20 18 26 -7 5 -17 13 -25 26 -24 10 1 19 4
19 8 0 4 8 5 19 2 12 -3 21 -17 24 -36 3 -18 9 -41 13 -51 6 -16 4 -18 -19
-14 -24 5 -26 3 -15 -11 35 -45 88 -57 88 -21 0 18 3 19 20 10 19 -10 19 -13
5 -33 -21 -30 -19 -40 7 -31 20 6 21 5 10 -9 -10 -12 -11 -21 -3 -36 9 -16 8
-22 -6 -30 -16 -9 -14 -10 9 -11 22 0 26 4 21 18 -5 14 -3 14 14 -3 19 -19 22
-41 3 -30 -4 3 -6 -10 -3 -27 5 -37 13 -50 13 -25 0 10 7 17 15 17 19 0 19
-20 0 -46 -8 -12 -11 -24 -8 -28 3 -3 -5 -6 -18 -7 l-24 0 23 -9 c25 -10 28
-20 10 -38 -9 -9 -8 -12 5 -12 9 0 17 5 17 11 0 6 6 9 13 6 6 -2 11 -10 9 -17
-4 -17 28 -51 40 -44 6 4 7 -2 4 -14 -4 -12 -3 -38 3 -58 7 -27 7 -42 0 -51
-8 -9 -7 -14 5 -19 10 -4 16 -18 16 -39 0 -18 7 -38 15 -45 17 -14 20 -37 5
-42 -17 -5 0 -44 21 -45 10 -1 19 2 19 8 0 5 -7 9 -16 9 -19 0 -15 31 6 38 13
5 13 3 1 -11 -10 -12 -10 -17 -2 -17 7 0 20 -7 28 -16 13 -13 14 -17 3 -24
-17 -11 -5 -41 19 -47 19 -5 36 -62 22 -73 -7 -6 -7 -11 4 -58 5 -22 12 -31
21 -28 8 3 14 1 14 -4 0 -13 -23 -25 -42 -22 -26 5 -22 -4 15 -38 23 -21 27
-29 16 -30 -23 0 -34 -62 -17 -90 11 -17 11 -22 -1 -30 -12 -7 -13 -13 -3 -34
10 -23 9 -26 -8 -26 -11 0 -20 -3 -20 -6 0 -10 28 -34 40 -34 6 0 10 -8 8 -17
-2 -11 -12 -18 -26 -17 -17 0 -22 -5 -22 -23 0 -14 4 -21 10 -18 6 3 10 -1 10
-11 0 -26 -30 3 -31 30 0 20 -1 20 -10 -3 -7 -18 -5 -28 7 -43 10 -10 14 -21
11 -25 -4 -3 -7 0 -7 8 -1 10 -5 8 -15 -5 -20 -27 -19 -33 6 -32 13 1 25 -7
30 -21 7 -19 5 -23 -10 -23 -11 0 -21 6 -24 13 -2 6 -8 9 -13 4 -4 -4 2 -14
14 -23 27 -19 29 -38 3 -31 -13 3 -23 -3 -31 -18 -12 -22 -6 -50 8 -41 4 2 18
-2 32 -10 25 -13 25 -13 3 -14 -13 0 -23 4 -23 10 0 5 -7 7 -15 4 -8 -4 -12
-10 -9 -15 3 -5 -4 -9 -15 -9 -36 0 -60 -37 -55 -87 2 -25 0 -42 -5 -38 -15 9
-71 -29 -71 -48 0 -11 -5 -15 -11 -11 -7 4 -10 -4 -7 -22 2 -21 -1 -29 -12
-29 -8 0 -18 -4 -21 -9 -9 -11 -31 3 -24 15 4 5 0 9 -8 9 -17 0 -16 -26 1 -58
13 -22 12 -23 -7 -13 -27 15 -31 14 -31 -8 0 -11 -5 -23 -11 -27 -6 -3 -8 -17
-5 -30 8 -32 -4 -81 -15 -63 -9 16 -14 12 -24 -20 -5 -16 -4 -21 4 -17 6 4 11
3 11 -2 0 -4 19 -19 42 -32 22 -12 38 -18 34 -12 -3 6 3 14 15 17 13 5 25 2
30 -6 6 -11 12 -11 33 1 14 7 26 19 26 27 0 7 5 13 11 13 5 0 7 4 4 10 -3 5 1
22 9 37 8 16 22 45 32 66 9 20 20 37 25 37 5 0 9 8 9 19 0 10 6 24 14 30 8 7
12 21 9 31 -3 11 0 20 6 20 6 0 16 11 21 24 5 14 23 44 40 67 16 23 30 52 30
64 0 11 5 26 12 33 6 6 13 22 15 34 2 13 10 28 18 34 8 6 15 27 15 46 0 19 4
38 10 44 5 5 13 32 17 59 3 28 13 56 20 64 12 11 12 15 2 22 -18 11 -8 18 24
21 30 3 38 28 10 29 -11 0 -13 3 -5 6 6 2 12 14 12 25 0 11 8 22 18 25 14 3
18 15 18 57 1 28 7 62 13 75 12 21 11 22 -8 12 -12 -7 -22 -7 -26 -2 -3 5 4
12 15 16 22 7 26 20 10 30 -6 4 -8 11 -4 16 3 5 10 7 15 4 5 -4 9 3 9 14 0 10
2 26 5 34 4 8 0 14 -10 14 -20 0 -49 -53 -38 -70 4 -7 0 -7 -10 2 -16 12 -16
16 -2 31 8 9 15 22 15 28 0 7 4 12 10 12 18 0 51 43 40 54 -5 5 -10 23 -10 40
0 16 -7 38 -17 48 -14 16 -15 18 0 18 13 0 15 7 10 37 -4 23 -2 34 4 30 6 -4
10 16 9 56 -1 34 2 65 6 68 10 6 -1 41 -11 35 -3 -2 -17 7 -31 20 -26 25 -14
32 22 13 11 -6 22 -9 24 -6 9 8 -8 37 -22 37 -20 0 -17 13 5 29 25 18 16 44
-13 36 -15 -5 -17 -3 -8 3 8 5 13 13 12 18 -1 4 7 12 17 16 12 6 7 7 -14 3
-32 -4 -44 7 -22 20 6 5 4 12 -8 21 -10 7 -14 14 -9 14 5 0 -1 8 -13 19 -12
11 -19 25 -15 34 3 8 -1 29 -10 45 -13 24 -20 60 -25 115 -1 5 -5 6 -10 3 -5
-4 -7 2 -5 12 3 9 -3 26 -14 37 -10 11 -16 27 -14 34 8 24 -48 118 -62 104 -3
-4 -6 4 -6 16 0 12 -7 24 -15 27 -8 4 -15 14 -15 24 0 11 -4 22 -10 25 -5 3
-10 1 -10 -5 0 -6 -5 -8 -11 -4 -6 4 -9 20 -6 39 5 29 3 32 -19 27 -15 -3 -24
0 -24 8 0 7 6 10 14 7 21 -8 25 13 8 45 -16 32 -13 59 7 66 8 3 11 0 7 -7 -5
-7 -1 -9 8 -5 19 7 20 18 5 45 -7 15 -7 24 2 35 15 18 29 18 29 -1 0 -8 9 -15
20 -15 12 0 20 -7 20 -16 0 -10 5 -14 15 -10 10 4 27 -7 46 -29 17 -19 37 -35
45 -35 8 0 14 -6 14 -12 1 -7 14 -24 30 -38 17 -13 30 -30 30 -38 0 -8 18 -34
40 -60 22 -25 43 -56 46 -69 4 -13 10 -23 14 -23 5 0 12 -10 16 -22 4 -13 15
-33 25 -46 10 -13 16 -29 13 -36 -3 -8 2 -16 11 -20 10 -4 15 -12 11 -22 -3
-8 -2 -12 4 -9 6 4 10 -7 10 -24 0 -16 5 -33 10 -36 6 -3 10 -17 10 -30 0 -13
5 -27 10 -30 6 -3 10 -15 10 -26 0 -10 4 -19 8 -19 5 0 9 -16 10 -35 1 -20 5
-41 9 -48 4 -6 8 -18 8 -27 1 -8 8 -42 15 -75 18 -81 21 -535 3 -556 -7 -8
-10 -25 -6 -37 3 -12 1 -22 -5 -22 -5 0 -12 -17 -15 -37 -6 -47 -26 -123 -37
-144 -5 -9 -11 -37 -15 -62 -4 -26 -13 -52 -21 -58 -8 -6 -14 -21 -14 -33 0
-20 -21 -89 -39 -131 -9 -20 -35 -128 -47 -197 -3 -21 -10 -38 -15 -38 -5 0
-9 -15 -9 -34 0 -18 -7 -39 -15 -46 -8 -7 -17 -28 -21 -47 -4 -19 -17 -54 -29
-77 -13 -24 -26 -58 -30 -77 -4 -19 -12 -37 -17 -40 -9 -6 -13 -17 -39 -121
-7 -27 -16 -48 -21 -48 -4 0 -8 -9 -8 -21 0 -11 -9 -32 -20 -46 -11 -14 -17
-30 -14 -35 3 -5 -2 -15 -11 -22 -10 -7 -17 -24 -17 -39 0 -15 -7 -32 -14 -38
-8 -6 -14 -17 -14 -24 0 -19 -30 -75 -41 -75 -5 0 -9 -8 -9 -19 0 -10 -9 -30
-20 -44 -11 -14 -20 -32 -20 -41 0 -9 -4 -16 -10 -16 -5 0 -10 -6 -10 -13 0
-7 -9 -18 -20 -25 -11 -7 -20 -21 -20 -31 0 -11 -8 -22 -18 -25 -10 -3 -26
-19 -35 -36 -10 -16 -23 -30 -29 -30 -5 0 -8 -6 -5 -14 5 -14 -31 -36 -58 -36
-10 0 -15 -11 -15 -31 0 -25 -3 -30 -16 -25 -13 5 -15 2 -11 -14 3 -11 1 -23
-4 -26 -5 -3 -9 -14 -9 -26 0 -14 -5 -18 -16 -14 -9 3 -27 6 -40 6 -14 0 -24
6 -24 15 0 17 -29 34 -47 28 -7 -3 -13 -12 -13 -21 0 -14 2 -14 9 -3 5 7 14
12 21 9 9 -3 8 -9 -4 -21 -20 -20 -36 -22 -36 -5 0 6 -8 4 -19 -6 -11 -10 -24
-15 -30 -12 -16 10 -24 -13 -10 -30 6 -8 9 -17 5 -21 -3 -4 -12 2 -20 12 -17
24 -39 10 -32 -21 4 -17 1 -26 -13 -33 -10 -6 -21 -7 -25 -4 -3 3 -14 -1 -25
-11 -10 -9 -24 -16 -32 -14 -7 2 -13 -6 -13 -17 0 -11 -5 -25 -10 -30 -11 -12
-46 -14 -46 -3 0 4 -8 8 -19 8 -24 0 -23 -30 3 -50 16 -14 16 -17 3 -28 -20
-17 -120 -23 -130 -9 -5 7 -7 3 -4 -11 5 -19 0 -25 -23 -34 -36 -12 -45 -11
-45 4 0 20 -21 19 -40 -2 -18 -20 -18 -20 6 -21 18 -1 16 -3 -11 -10 -19 -4
-41 -6 -49 -3 -8 2 -17 0 -20 -5 -3 -5 -24 -10 -46 -11 -63 -3 -68 -2 -61 17
4 10 4 14 0 11 -4 -4 -15 -3 -25 3 -15 8 -19 6 -19 -7 0 -10 5 -14 14 -11 16
6 26 -11 19 -30 -7 -20 -53 -16 -54 5 0 13 -2 14 -6 2 -9 -23 -23 -29 -59 -23
-23 4 -38 0 -49 -11 -22 -21 -32 -20 -40 4 -3 11 -12 20 -18 20 -21 0 -40 -17
-33 -29 4 -6 11 -9 16 -6 4 3 14 -2 21 -11 10 -13 10 -17 -1 -24 -9 -5 -20 -4
-29 3 -11 9 -15 9 -18 0 -3 -7 -13 -13 -24 -13 -10 0 -19 -4 -19 -9 0 -5 -30
-12 -67 -16 -38 -4 -70 -11 -73 -15 -7 -11 -213 -32 -235 -24 -10 4 -21 1 -26
-7 -7 -11 -12 -12 -28 -2 -11 7 -22 9 -25 4 -3 -5 -19 -11 -36 -15 -17 -3 -43
-17 -58 -31 -15 -14 -30 -25 -34 -25 -5 0 -8 -7 -8 -15 0 -7 -6 -18 -13 -22
-8 -4 -28 -38 -45 -76 -25 -52 -34 -90 -42 -170 -6 -56 -13 -120 -17 -142 -6
-44 -30 -88 -43 -80 -5 3 -11 1 -15 -5 -3 -5 -17 -10 -31 -10 -14 0 -27 -7
-31 -16 -3 -9 -15 -14 -27 -12 -13 1 -34 -5 -49 -15 -14 -9 -33 -17 -42 -17
-9 0 -18 -7 -21 -15 -4 -8 -14 -15 -24 -15 -10 0 -21 -8 -24 -17 -5 -12 -10
-13 -18 -5 -11 11 -75 5 -93 -8 -34 -26 -89 -50 -120 -52 -20 -1 -41 -8 -47
-15 -6 -8 -19 -11 -29 -8 -9 3 -20 1 -24 -5 -3 -5 -14 -10 -24 -10 -10 0 -24
-7 -31 -15 -7 -8 -27 -17 -46 -21 -19 -3 -34 -10 -34 -15 0 -5 -11 -9 -25 -9
-15 0 -25 -6 -25 -14 0 -8 -4 -18 -10 -21 -5 -3 -7 0 -4 8 8 22 -17 33 -31 14
-7 -10 -20 -17 -29 -17 -9 0 -16 -4 -16 -9 0 -5 -9 -7 -20 -4 -13 3 -22 -1
-26 -12 -5 -13 -9 -14 -15 -3 -7 10 -9 9 -9 -4 0 -14 -8 -18 -34 -18 -25 0
-35 -5 -39 -20 -3 -13 -11 -18 -21 -14 -8 3 -30 -1 -47 -10 -18 -9 -41 -16
-52 -16 -11 0 -41 -15 -67 -34 -30 -22 -51 -31 -57 -25 -13 13 -43 1 -43 -17
0 -8 -9 -14 -20 -14 -11 0 -20 5 -20 10 0 6 -4 10 -10 10 -5 0 -10 -7 -10 -16
0 -20 -30 -52 -30 -32 0 7 -16 -4 -35 -24 -19 -21 -35 -33 -35 -28 0 16 -40
11 -46 -5 -7 -18 -44 -20 -44 -3 0 6 -8 4 -19 -6 -11 -10 -25 -15 -32 -10 -8
4 -10 3 -5 -5 4 -6 0 -14 -8 -17 -9 -3 -16 -11 -16 -18 0 -6 -12 -12 -26 -13
-15 0 -39 -10 -55 -22 -15 -12 -40 -21 -54 -21 -14 0 -37 -11 -51 -25 -14 -14
-33 -25 -42 -25 -10 0 -27 -7 -39 -15 -12 -8 -28 -12 -37 -9 -10 4 -16 1 -16
-10 0 -9 -6 -13 -14 -10 -8 3 -29 -10 -49 -30 -26 -25 -45 -36 -74 -38 -30 -2
-37 -7 -35 -20 2 -13 -4 -18 -21 -18 -14 0 -30 -7 -37 -15 -7 -8 -21 -15 -32
-15 -15 0 -18 -5 -13 -22 6 -17 4 -20 -9 -15 -10 4 -15 3 -11 -3 3 -6 -3 -10
-14 -10 -11 0 -29 -10 -40 -21 -11 -12 -26 -19 -34 -16 -8 3 -28 -7 -44 -21
-28 -26 -55 -30 -78 -12 -11 9 -95 -10 -95 -20 0 -4 -13 -5 -29 -2 -16 2 -32
-1 -35 -7 -9 -14 -56 -14 -56 0 0 5 -5 7 -10 4 -6 -4 -8 -11 -5 -16 4 -5 -15
-9 -42 -9 -27 0 -53 -4 -58 -9 -6 -5 -35 -11 -65 -13 -30 -1 -59 -8 -65 -14
-5 -7 -34 -15 -63 -18 -43 -6 -52 -4 -46 6 4 7 -4 3 -17 -8 -18 -16 -39 -22
-88 -23 -36 -1 -93 -9 -128 -17 -77 -18 -204 -27 -183 -14 10 6 11 10 3 10 -7
0 -17 -8 -22 -19 -13 -24 -55 -35 -81 -21 -16 9 -25 7 -42 -10 -16 -15 -35
-20 -76 -20 -38 0 -65 -6 -89 -21 -26 -17 -37 -19 -43 -10 -5 10 -9 9 -13 -3
-4 -9 -18 -16 -32 -16 -14 0 -33 -9 -42 -20 -10 -11 -26 -20 -37 -20 -22 0
-86 -38 -86 -51 0 -5 -12 -9 -26 -9 -14 0 -40 -11 -56 -25 -16 -14 -35 -22
-41 -18 -9 5 -9 3 0 -8 10 -12 7 -20 -12 -44 -23 -26 -29 -39 -26 -57 0 -5 -4
-8 -9 -8 -6 0 -16 -12 -23 -27 -6 -16 -22 -38 -34 -49 -13 -12 -23 -25 -23
-30 0 -5 -13 -24 -29 -41 -16 -18 -32 -46 -36 -63 -4 -16 -11 -30 -16 -30 -5
0 -9 -7 -9 -15 0 -9 -7 -18 -15 -21 -8 -4 -13 -9 -10 -13 2 -5 -11 -23 -30
-41 -19 -19 -35 -41 -35 -50 0 -9 -16 -31 -35 -50 -19 -19 -35 -40 -35 -48 0
-7 -5 -10 -12 -6 -7 4 -8 3 -4 -4 4 -6 0 -19 -9 -29 -52 -60 -65 -77 -65 -88
0 -13 -79 -95 -92 -95 -4 0 -8 5 -8 10 0 6 -28 10 -65 10 -43 0 -64 -4 -63
-11 2 -8 -19 -13 -59 -15 -34 -2 -79 -10 -100 -20 -24 -10 -63 -16 -108 -15
-47 0 -64 -2 -50 -8 20 -9 20 -9 1 -17 -13 -5 -21 -3 -24 5 -3 9 -7 9 -17 1
-10 -8 -19 -8 -34 0 -17 9 -20 8 -15 -5 4 -8 1 -15 -5 -15 -6 0 -11 4 -11 9 0
10 -50 2 -67 -11 -7 -6 -20 -8 -28 -4 -9 3 -13 2 -10 -4 4 -6 -8 -10 -27 -10
-18 0 -42 -7 -52 -15 -11 -8 -28 -15 -39 -15 -11 0 -15 -4 -11 -12 5 -8 2 -9
-9 -5 -9 3 -19 2 -22 -3 -3 -5 -12 -7 -20 -3 -10 3 -15 -1 -15 -13 0 -16 -2
-16 -10 -4 -8 12 -10 12 -16 -4 -5 -14 -9 -15 -15 -4 -7 10 -9 10 -9 1 0 -7
-10 -13 -22 -14 -22 0 -22 -1 -3 -9 16 -7 14 -9 -12 -7 -18 0 -40 -6 -51 -16
-10 -9 -21 -14 -24 -11 -10 9 -49 -16 -43 -27 4 -5 -13 -9 -39 -9 -35 0 -46
-4 -46 -16 0 -9 -6 -14 -12 -11 -7 2 -26 -5 -41 -15 -15 -11 -37 -18 -47 -15
-15 4 -20 0 -20 -14 0 -21 -16 -26 -23 -6 -4 9 -6 9 -6 0 -1 -7 -12 -13 -25
-13 -13 0 -29 -7 -36 -15 -7 -8 -16 -12 -21 -9 -5 3 -9 0 -9 -6 0 -7 -6 -10
-13 -7 -7 3 -24 -1 -38 -9 -13 -7 -34 -13 -46 -14 -13 0 -23 -6 -23 -14 0 -12
-16 -16 -72 -17 -23 0 -23 -19 0 -19 14 0 15 -2 2 -10 -10 -6 -16 -6 -18 0 -6
17 -32 11 -32 -6 0 -13 -3 -14 -15 -4 -17 14 -56 4 -49 -14 3 -9 -6 -11 -32
-8 -27 3 -41 0 -50 -13 -7 -9 -17 -14 -22 -11 -5 3 -19 -4 -31 -15 -12 -11
-25 -18 -30 -15 -5 3 -12 -1 -15 -10 -3 -9 -12 -14 -19 -11 -15 5 -67 -20 -67
-33 0 -5 -6 -7 -12 -5 -13 5 -59 -29 -135 -102 -24 -24 -48 -43 -52 -43 -4 0
-30 -20 -57 -45 -27 -25 -55 -45 -62 -45 -7 0 -11 -4 -7 -9 3 -6 -11 -17 -30
-27 -23 -11 -34 -22 -31 -31 3 -8 2 -12 -3 -9 -11 7 -71 -22 -71 -34 0 -5 -11
-21 -24 -37 -25 -30 -64 -133 -72 -191 -2 -18 -8 -42 -14 -51 -5 -10 -7 -21
-3 -24 3 -4 1 -12 -4 -19 -6 -7 -18 -49 -28 -93 -10 -44 -23 -98 -30 -120 -16
-48 -62 -243 -100 -415 -15 -69 -31 -134 -36 -145 -4 -11 -13 -38 -19 -60 -12
-47 -38 -74 -105 -110 -48 -25 -72 -33 -107 -34 -10 -1 -18 -8 -18 -17 0 -8
-4 -12 -10 -9 -13 8 -51 -13 -69 -38 -11 -15 -15 -16 -22 -6 -6 11 -9 10 -15
-4 -3 -9 -12 -17 -20 -17 -16 0 -56 -21 -65 -34 -4 -5 -12 -5 -18 -2 -6 4 -11
3 -11 -1 0 -15 -62 -46 -91 -45 -15 0 -30 -6 -33 -13 -3 -8 -21 -17 -40 -21
l-36 -6 0 -1709 0 -1709 5640 0 5640 0 0 7520 0 7520 -3895 0 -3895 0 0 -21
c0 -11 -4 -17 -10 -14 -5 3 -10 -3 -10 -15 0 -12 -5 -20 -12 -18 -17 6 -18 36
-2 42 8 3 14 10 14 16 0 6 -28 10 -75 9 -63 -1 -77 -5 -86 -20z m97 -89 c0
-11 -6 -20 -12 -20 -7 0 -10 8 -7 20 3 11 8 20 12 20 4 0 7 -9 7 -20z m-38
-60 c-7 -11 -16 -20 -19 -20 -4 0 -5 9 -2 20 3 11 12 20 19 20 12 0 12 -4 2
-20z m-65 -28 c11 -12 13 -22 7 -32 -8 -12 -10 -10 -10 8 0 13 -4 21 -10 17
-5 -3 -6 -13 -3 -22 4 -11 3 -14 -5 -9 -8 5 -12 0 -12 -14 0 -27 -37 -59 -68
-60 -20 0 -21 3 -12 20 8 15 17 19 31 15 15 -5 19 -2 19 18 0 14 7 27 15 31 8
3 15 15 15 26 0 25 12 26 33 2z m-257 -213 c3 -6 2 -15 -4 -21 -6 -6 -11 -2
-15 11 -5 22 7 29 19 10z m11 -151 c-3 -8 -6 -5 -6 6 -1 11 2 17 5 13 3 -3 4
-12 1 -19z m-107 -233 c0 -8 -2 -15 -4 -15 -2 0 -6 7 -10 15 -3 8 -1 15 4 15
6 0 10 -7 10 -15z m-270 -343 c0 -11 -41 -45 -47 -39 -5 6 28 45 40 46 4 1 7
-2 7 -7z m-50 -138 c0 -14 -4 -23 -9 -20 -5 3 -7 15 -4 26 7 28 13 25 13 -6z
m-30 -44 c0 -5 -2 -10 -4 -10 -3 0 -8 5 -11 10 -3 6 -1 10 4 10 6 0 11 -4 11
-10z m-106 -241 c-10 -34 -12 -55 -6 -61 7 -7 4 -17 -9 -31 -28 -31 -34 -14
-16 44 10 28 17 59 17 68 0 19 8 31 21 31 4 0 1 -23 -7 -51z m56 -69 c0 -5 -9
-10 -21 -10 -11 0 -17 5 -14 10 3 6 13 10 21 10 8 0 14 -4 14 -10z m-102 -87
c10 -30 10 -49 -2 -103 -11 -49 -16 -54 -31 -33 -11 15 -11 21 2 35 8 9 12 22
8 28 -4 7 -1 16 6 21 10 6 11 9 2 9 -8 0 -13 14 -13 35 0 42 14 46 28 8z m119
-48 c0 -49 -3 -65 -13 -65 -8 0 -14 -4 -14 -10 0 -17 -25 -11 -43 10 -21 25
-21 30 -2 30 8 0 15 -7 15 -16 0 -28 25 -9 28 22 2 16 6 36 9 44 6 14 9 23 12
43 4 24 7 -2 8 -58z m-47 15 c0 -5 -2 -10 -4 -10 -3 0 -8 5 -11 10 -3 6 -1 10
4 10 6 0 11 -4 11 -10z m-7 -106 c3 -3 2 -14 -3 -23 -4 -9 -13 -36 -20 -60
-10 -37 -9 -47 2 -55 7 -6 15 -28 17 -48 2 -33 0 -38 -18 -38 -18 0 -21 -6
-22 -47 0 -27 -2 -57 -4 -68 -3 -11 -7 -58 -11 -105 -3 -47 -10 -89 -16 -95
-17 -18 -28 19 -23 80 3 33 7 100 9 148 3 49 9 94 14 100 6 7 13 44 16 82 3
39 8 79 10 90 3 11 5 24 5 28 1 5 6 5 11 2 6 -3 10 -1 10 4 0 12 13 15 23 5z
m-109 -152 c0 -98 -1 -99 -21 -80 -13 14 -14 20 -4 32 8 10 12 36 9 69 -2 34
1 53 7 51 6 -3 10 -35 9 -72z m-28 -11 c-13 -20 -26 -11 -26 16 0 25 1 26 16
11 9 -9 13 -21 10 -27z m134 -107 c0 -8 -4 -14 -9 -14 -6 0 -9 9 -8 19 1 22
17 18 17 -5z m7572 -226 c-6 -6 -19 -7 -29 -3 -17 7 -17 8 2 15 24 9 41 2 27
-12z m-712 -183 c0 -19 -45 -67 -54 -58 -3 4 -6 15 -6 25 0 12 7 18 25 18 18
0 23 4 19 15 -4 8 -1 15 5 15 6 0 11 -7 11 -15z m470 -80 c-7 -9 -15 -13 -17
-11 -6 6 20 36 26 30 2 -2 -2 -10 -9 -19z m-53 -1 c-3 -3 -12 -4 -19 -1 -8 3
-5 6 6 6 11 1 17 -2 13 -5z m-163 -40 c3 -8 2 -12 -4 -9 -6 3 -10 10 -10 16 0
14 7 11 14 -7z m-324 -13 c0 -5 -7 -12 -16 -15 -14 -5 -15 -4 -4 9 14 17 20
19 20 6z m370 -1 c0 -5 -8 -10 -17 -10 -15 0 -16 2 -3 10 19 12 20 12 20 0z
m-7100 -55 c0 -27 -9 -32 -28 -13 -18 18 -14 38 8 38 15 0 20 -7 20 -25z
m6797 -7 c-3 -8 -6 -5 -6 6 -1 11 2 17 5 13 3 -3 4 -12 1 -19z m-296 -31 c-11
-11 -41 -3 -41 11 0 5 12 7 26 4 17 -3 22 -8 15 -15z m983 -29 c16 -11 -6 -10
-23 1 -8 5 -10 14 -5 22 6 10 9 10 12 -1 3 -8 10 -18 16 -22z m-724 2 c0 -11
-7 -20 -15 -20 -15 0 -21 21 -8 33 12 13 23 7 23 -13z m-86 -15 c-4 -8 -12
-15 -20 -15 -17 0 -18 17 -1 23 22 9 27 7 21 -8z m43 -31 c-3 -3 -12 -4 -19
-1 -8 3 -5 6 6 6 11 1 17 -2 13 -5z m376 -75 c-5 -5 -7 7 -4 29 5 34 6 35 9 8
2 -16 0 -32 -5 -37z m-643 30 c0 -5 -4 -9 -10 -9 -5 0 -10 7 -10 16 0 8 5 12
10 9 6 -3 10 -10 10 -16z m276 -23 c15 -16 19 -56 5 -56 -5 0 -7 10 -3 22 3
14 2 19 -6 14 -7 -4 -12 -5 -12 -2 0 2 -3 11 -6 20 -8 20 3 21 22 2z m-11
-108 c4 -20 2 -45 -4 -55 -10 -17 -10 -17 -11 0 0 9 -6 17 -12 18 -10 0 -10 2
0 6 16 6 15 33 -3 57 -21 28 -19 38 4 24 11 -7 23 -29 26 -50z m-64 22 c5 0 9
-8 9 -17 -1 -15 -4 -14 -20 6 -11 12 -17 28 -13 35 5 7 9 5 11 -6 2 -10 8 -18
13 -18z m-383 -18 c2 -7 -3 -12 -12 -12 -9 0 -16 7 -16 16 0 17 22 14 28 -4z
m1642 -7 c0 -8 -4 -15 -10 -15 -5 0 -10 7 -10 15 0 8 5 15 10 15 6 0 10 -7 10
-15z m-1729 -12 c13 -16 12 -17 -3 -4 -17 13 -22 21 -14 21 2 0 10 -8 17 -17z
m1729 -23 c0 -5 -4 -10 -10 -10 -5 0 -10 5 -10 10 0 6 5 10 10 10 6 0 10 -4
10 -10z m-8020 -26 c0 -8 -4 -12 -10 -9 -5 3 -10 10 -10 16 0 5 5 9 10 9 6 0
10 -7 10 -16z m6155 7 c3 -5 1 -12 -5 -16 -5 -3 -10 1 -10 9 0 18 6 21 15 7z
m-25 -46 c0 -14 -4 -25 -10 -25 -5 0 -10 11 -10 25 0 14 5 25 10 25 6 0 10
-11 10 -25z m696 0 c1 -8 -2 -15 -7 -15 -5 0 -9 10 -9 22 0 23 12 17 16 -7z
m-649 -7 c-3 -8 -6 -5 -6 6 -1 11 2 17 5 13 3 -3 4 -12 1 -19z m1618 -8 c-3
-5 -13 -10 -21 -10 -8 0 -14 5 -14 10 0 6 9 10 21 10 11 0 17 -4 14 -10z m305
-64 c0 -11 -19 -15 -25 -6 -3 5 1 10 9 10 9 0 16 -2 16 -4z m-1030 -11 c0 -2
-10 -10 -22 -16 -21 -11 -22 -11 -9 4 13 16 31 23 31 12z m-1176 -31 c5 -12 2
-15 -10 -10 -8 3 -18 6 -20 6 -3 0 -2 5 1 10 9 15 22 12 29 -6z m-2064 -55 c0
-5 -4 -9 -10 -9 -5 0 -10 7 -10 16 0 8 5 12 10 9 6 -3 10 -10 10 -16z m360 -3
c0 -22 -19 -29 -36 -15 -14 12 -14 14 3 20 27 11 33 10 33 -5z m1554 -7 c3 1
6 -1 6 -4 0 -3 0 -10 0 -17 0 -6 -7 -3 -15 8 -8 10 -14 24 -15 29 0 6 4 4 9
-3 4 -8 11 -13 15 -13z m62 -16 c-10 -10 -19 5 -10 18 6 11 8 11 12 0 2 -7 1
-15 -2 -18z m2254 -13 c0 -5 -7 -10 -15 -10 -8 0 -15 5 -15 10 0 6 7 10 15 10
8 0 15 -4 15 -10z m-7940 -35 c0 -28 -4 -35 -20 -35 -17 0 -19 4 -14 28 6 22
20 41 32 42 1 0 2 -16 2 -35z m8004 7 c3 -5 7 -20 10 -34 5 -29 -8 -56 -18
-39 -5 7 -15 7 -32 1 -21 -8 -24 -7 -22 8 2 9 10 20 18 23 8 3 16 11 16 18 1
6 2 16 3 21 1 12 18 13 25 2z m-78 -23 c3 -6 1 -15 -6 -19 -7 -4 -10 -15 -7
-24 3 -8 2 -18 -3 -21 -6 -4 -10 11 -10 34 0 40 12 53 26 30z m-66 -29 c0 -5
-2 -10 -4 -10 -3 0 -8 5 -11 10 -3 6 -1 10 4 10 6 0 11 -4 11 -10z m-7835 -40
c0 -38 -19 -51 -33 -23 -12 22 3 66 20 61 7 -3 13 -20 13 -38z m4189 -6 c9
-22 8 -24 -9 -24 -8 0 -15 9 -15 20 0 24 15 27 24 4z m3601 6 c3 -5 1 -10 -4
-10 -6 0 -11 5 -11 10 0 6 2 10 4 10 3 0 8 -4 11 -10z m-1385 -14 c0 -9 -30
-14 -35 -6 -4 6 3 10 14 10 12 0 21 -2 21 -4z m1490 -11 c0 -8 -4 -15 -10 -15
-5 0 -10 7 -10 15 0 8 5 15 10 15 6 0 10 -7 10 -15z m-653 -11 c-3 -3 -12 -4
-19 -1 -8 3 -5 6 6 6 11 1 17 -2 13 -5z m543 -29 c0 -8 -4 -15 -10 -15 -5 0
-10 7 -10 15 0 8 5 15 10 15 6 0 10 -7 10 -15z m-3578 -8 c-6 -7 -9 -23 -5
-35 6 -24 -11 -30 -24 -9 -16 26 -3 57 24 57 12 0 13 -3 5 -13z m2528 -11 c0
-13 -9 -34 -20 -47 -19 -24 -19 -24 -20 -3 0 12 7 25 16 28 10 4 14 14 11 26
-3 11 -1 20 4 20 5 0 9 -11 9 -24z m-205 -27 c-7 -10 -35 -1 -35 11 0 5 9 6
20 3 11 -3 17 -9 15 -14z m-3465 -5 c0 -14 -3 -14 -15 -4 -8 7 -15 14 -15 16
0 2 7 4 15 4 8 0 15 -7 15 -16z m3380 -4 c0 -5 -7 -10 -15 -10 -8 0 -15 5 -15
10 0 6 7 10 15 10 8 0 15 -4 15 -10z m150 -6 c0 -2 -7 -4 -15 -4 -8 0 -15 4
-15 10 0 5 7 7 15 4 8 -4 15 -8 15 -10z m763 -12 c-14 -2 -20 -8 -16 -18 3 -8
-1 -14 -11 -14 -9 0 -16 4 -16 9 0 15 42 41 54 33 6 -4 2 -8 -11 -10z m-761
-30 c-7 -2 -12 -10 -12 -18 0 -9 -4 -12 -10 -9 -6 4 -3 16 7 32 12 17 19 21
22 12 2 -7 -1 -15 -7 -17z m-156 -34 c10 -10 15 -20 12 -23 -9 -9 -45 29 -52
55 -7 24 -7 24 8 5 8 -11 23 -28 32 -37z m207 22 c-3 -11 -12 -20 -19 -20 -18
0 -18 5 2 24 20 21 23 20 17 -4z m-153 -11 c-7 -11 -14 -18 -17 -15 -8 8 5 36
17 36 7 0 7 -6 0 -21z m1485 11 c-3 -5 -10 -10 -16 -10 -5 0 -9 5 -9 10 0 6 7
10 16 10 8 0 12 -4 9 -10z m-1585 -26 c0 -8 -5 -12 -10 -9 -6 4 -8 11 -5 16 9
14 15 11 15 -7z m127 -6 c-3 -8 -6 -5 -6 6 -1 11 2 17 5 13 3 -3 4 -12 1 -19z
m-6397 -28 c0 -10 -49 -10 -55 0 -3 6 1 10 9 10 9 0 16 8 16 17 0 15 2 14 15
-3 8 -10 15 -21 15 -24z m6300 0 c0 -5 -5 -10 -11 -10 -5 0 -7 5 -4 10 3 6 8
10 11 10 2 0 4 -4 4 -10z m80 -30 c0 -5 -4 -12 -10 -15 -5 -3 -10 -4 -10 -1 0
2 -3 12 -6 20 -5 12 -2 15 10 10 9 -3 16 -10 16 -14z m1430 10 c0 -5 -2 -10
-4 -10 -3 0 -8 5 -11 10 -3 6 -1 10 4 10 6 0 11 -4 11 -10z m-7790 -50 c0 -5
9 -10 20 -10 13 0 20 -7 20 -19 0 -16 -4 -17 -35 -7 -33 10 -43 24 -28 39 10
10 23 8 23 -3z m6290 0 c0 -5 -2 -10 -4 -10 -3 0 -8 5 -11 10 -3 6 -1 10 4 10
6 0 11 -4 11 -10z m1503 -10 c3 -11 1 -18 -4 -14 -5 3 -9 12 -9 20 0 20 7 17
13 -6z m-5299 -7 c6 -15 8 -15 17 -3 8 13 10 13 19 0 9 -13 11 -13 21 0 9 13
10 13 7 0 -6 -19 -70 -33 -80 -17 -11 16 -10 37 1 37 5 0 12 -8 15 -17z
m-1837 1 c-3 -3 -12 -4 -19 -1 -8 3 -5 6 6 6 11 1 17 -2 13 -5z m5593 2 c0 -3
-4 -8 -10 -11 -5 -3 -10 -1 -10 4 0 6 5 11 10 11 6 0 10 -2 10 -4z m285 -16
c3 -5 1 -10 -4 -10 -6 0 -11 5 -11 10 0 6 2 10 4 10 3 0 8 -4 11 -10z m-5952
-13 c-3 -4 3 -14 13 -22 18 -13 18 -14 1 -11 -10 1 -24 12 -32 24 -14 19 -14
21 4 19 11 0 17 -5 14 -10z m1124 -2 c0 -8 -4 -12 -9 -9 -4 3 -8 9 -8 15 0 5
4 9 8 9 5 0 9 -7 9 -15z m467 2 c-6 -15 -54 -21 -54 -6 0 5 4 8 8 5 4 -2 14
-1 22 5 21 12 30 11 24 -4z m80 -19 c-1 -20 -7 -34 -15 -36 -10 -2 -14 7 -12
30 2 41 1 38 16 38 7 0 12 -13 11 -32z m4021 12 c3 -5 1 -10 -4 -10 -6 0 -11
5 -11 10 0 6 2 10 4 10 3 0 8 -4 11 -10z m-4628 -32 c-3 -7 -5 -2 -5 12 0 14
2 19 5 13 2 -7 2 -19 0 -25z m440 17 c0 -8 -4 -15 -9 -15 -4 0 -8 7 -8 15 0 8
4 15 8 15 5 0 9 -7 9 -15z m-1347 -10 c-7 -8 -14 -15 -15 -15 -2 0 -5 7 -9 15
-4 10 1 15 16 15 17 0 18 -2 8 -15z m5746 -7 c4 -7 3 -8 -4 -4 -6 4 -21 2 -32
-4 -12 -6 -20 -7 -20 -1 0 8 15 15 42 20 4 0 10 -4 14 -11z m-2321 -29 c11
-17 -1 -21 -15 -4 -8 9 -8 15 -2 15 6 0 14 -5 17 -11z m2492 -29 c-1 -11 -7
-20 -14 -20 -11 0 -11 5 -3 20 6 11 13 20 15 20 2 0 3 -9 2 -20z m1143 -26 c0
-8 -7 -14 -15 -14 -15 0 -21 21 -9 33 10 9 24 -2 24 -19z m-1180 -10 c0 -12
-2 -12 -14 -2 -8 7 -12 16 -9 21 7 11 23 -2 23 -19z m-5300 12 c0 -3 -4 -8
-10 -11 -5 -3 -10 -1 -10 4 0 6 5 11 10 11 6 0 10 -2 10 -4z m5446 -11 c14
-13 13 -15 -3 -15 -14 0 -15 -2 -5 -9 11 -7 10 -10 -3 -15 -28 -10 -32 -7 -27
20 4 20 2 25 -8 19 -9 -5 -11 -4 -6 3 10 16 35 15 52 -3z m464 5 c0 -5 -2 -10
-4 -10 -3 0 -8 5 -11 10 -3 6 -1 10 4 10 6 0 11 -4 11 -10z m-6365 -18 c-3 -3
-11 0 -18 7 -9 10 -8 11 6 5 10 -3 15 -9 12 -12z m85 -2 c0 -13 -30 -13 -50 0
-11 7 -7 10 18 10 17 0 32 -4 32 -10z m165 0 c3 -6 -1 -7 -9 -4 -18 7 -21 14
-7 14 6 0 13 -4 16 -10z m5565 0 c0 -5 -5 -10 -11 -10 -5 0 -7 5 -4 10 3 6 8
10 11 10 2 0 4 -4 4 -10z m-5635 -23 c27 -4 27 -5 -4 -3 -21 0 -36 7 -38 16
-3 10 -2 11 4 3 4 -6 22 -13 38 -16z m6695 19 c0 -11 -19 -15 -25 -6 -3 5 1
10 9 10 9 0 16 -2 16 -4z m-1030 -20 c0 -9 -7 -12 -20 -9 -11 3 -17 9 -14 14
8 14 34 10 34 -5z m462 -14 c9 5 57 -35 52 -44 -9 -14 -22 -9 -26 9 -2 10 -12
18 -23 18 -12 0 -21 8 -23 20 -2 15 -1 16 6 7 5 -8 11 -12 14 -10z m-744 -4
c-6 -18 -28 -21 -28 -4 0 9 7 16 16 16 9 0 14 -5 12 -12z m1282 8 c0 -2 -7 -6
-15 -10 -8 -3 -15 -1 -15 4 0 6 7 10 15 10 8 0 15 -2 15 -4z m-5930 -22 c0 -2
-7 -4 -15 -4 -8 0 -15 4 -15 10 0 5 7 7 15 4 8 -4 15 -8 15 -10z m4715 -4 c3
-5 2 -10 -4 -10 -5 0 -13 5 -16 10 -3 6 -2 10 4 10 5 0 13 -4 16 -10z m1255
-5 c11 -13 10 -14 -4 -9 -9 3 -16 10 -16 15 0 13 6 11 20 -6z m-700 -10 c11
-13 7 -15 -26 -15 -36 1 -38 2 -20 15 25 19 31 19 46 0z m230 5 c0 -5 -2 -10
-4 -10 -3 0 -8 5 -11 10 -3 6 -1 10 4 10 6 0 11 -4 11 -10z m-842 -35 c-11
-25 -28 -34 -28 -15 0 6 5 10 10 10 6 0 10 7 10 15 0 8 4 15 10 15 6 0 5 -10
-2 -25z m752 -9 c-14 -14 -22 -2 -14 18 5 14 9 15 15 4 4 -7 4 -17 -1 -22z
m-5330 20 c0 -11 -19 -15 -25 -6 -3 5 1 10 9 10 9 0 16 -2 16 -4z m60 -17 c0
-14 -27 -10 -33 5 -4 10 0 12 14 9 10 -3 19 -9 19 -14z m3190 17 c0 -3 -4 -8
-10 -11 -5 -3 -10 -1 -10 4 0 6 5 11 10 11 6 0 10 -2 10 -4z m2030 -6 c0 -5
-7 -10 -15 -10 -8 0 -15 5 -15 10 0 6 7 10 15 10 8 0 15 -4 15 -10z m-1980
-20 c0 -5 -4 -10 -10 -10 -5 0 -10 5 -10 10 0 6 5 10 10 10 6 0 10 -4 10 -10z
m-4173 -11 c8 -8 13 -8 17 0 10 16 36 13 36 -4 0 -10 -10 -15 -27 -15 -46 0
-70 -11 -84 -36 l-13 -25 -11 28 c-10 24 -9 30 9 45 24 20 57 23 73 7z m790 5
c-3 -3 -12 -4 -19 -1 -8 3 -5 6 6 6 11 1 17 -2 13 -5z m2437 -29 c9 -13 16
-30 16 -37 0 -9 -3 -9 -10 2 -5 8 -10 11 -10 5 -1 -15 -30 26 -30 42 0 21 16
15 34 -12z m2816 -5 c0 -5 -7 -10 -15 -10 -8 0 -15 5 -15 10 0 6 7 10 15 10 8
0 15 -4 15 -10z m684 -16 c3 -8 2 -12 -4 -9 -6 3 -10 10 -10 16 0 14 7 11 14
-7z m-6257 -16 c-3 -8 -6 -5 -6 6 -1 11 2 17 5 13 3 -3 4 -12 1 -19z m3533 -5
c0 -5 -5 -15 -10 -23 -8 -12 -10 -11 -10 8 0 12 5 22 10 22 6 0 10 -3 10 -7z
m140 -49 c0 -8 -4 -12 -10 -9 -5 3 -10 13 -10 21 0 8 5 12 10 9 6 -3 10 -13
10 -21z m-809 -29 c-9 -30 -9 -30 -10 10 -1 25 2 36 9 29 6 -6 6 -21 1 -39z
m716 13 c-3 -8 -6 -5 -6 6 -1 11 2 17 5 13 3 -3 4 -12 1 -19z m-782 2 c3 -5
-1 -10 -10 -10 -9 0 -13 5 -10 10 3 6 8 10 10 10 2 0 7 -4 10 -10z m-2405 -8
c0 -4 -9 -13 -20 -20 -24 -15 -26 -9 -4 12 17 18 24 20 24 8z m3234 -17 c-4
-8 -8 -15 -10 -15 -2 0 -4 7 -4 15 0 8 4 15 10 15 5 0 7 -7 4 -15z m-4022
-108 c2 -82 7 -107 21 -121 9 -10 14 -22 11 -27 -10 -17 5 -59 21 -59 8 0 15
-7 15 -15 0 -23 -15 -18 -30 10 -7 13 -17 23 -23 22 -31 -6 -68 218 -44 271
19 41 25 23 29 -81z m6023 93 c3 -5 1 -10 -4 -10 -6 0 -11 5 -11 10 0 6 2 10
4 10 3 0 8 -4 11 -10z m-5505 -10 c0 -5 -7 -10 -16 -10 -8 0 -12 5 -9 10 3 6
10 10 16 10 5 0 9 -4 9 -10z m280 -4 c0 -7 -9 -16 -20 -19 -11 -3 -20 -1 -20
4 0 5 7 9 15 9 8 0 15 5 15 10 0 6 2 10 5 10 3 0 5 -6 5 -14z m4513 -53 c-7
-2 -13 -11 -13 -19 0 -8 -5 -14 -10 -14 -7 0 -7 6 0 20 6 11 16 20 23 19 9 0
9 -2 0 -6z m-1926 -42 c0 -11 -5 -17 -9 -15 -11 7 -10 34 1 34 6 0 9 -9 8 -19z
m-2611 -29 c-23 -23 -31 -8 -9 17 10 13 19 17 22 10 2 -6 -4 -18 -13 -27z
m2644 18 c0 -5 -4 -10 -10 -10 -5 0 -10 5 -10 10 0 6 5 10 10 10 6 0 10 -4 10
-10z m-14 -52 c-3 -13 -6 -29 -6 -35 0 -7 -3 -13 -7 -13 -5 0 -7 14 -7 30 2
39 2 40 15 40 7 0 9 -9 5 -22z m-2886 -8 c0 -5 -5 -10 -11 -10 -5 0 -7 5 -4
10 3 6 8 10 11 10 2 0 4 -4 4 -10z m2774 -15 c3 -9 0 -15 -9 -15 -9 0 -12 6
-9 15 4 8 7 15 9 15 2 0 5 -7 9 -15z m-2716 -34 c27 -22 18 -33 -14 -19 -25
11 -29 20 -17 31 8 9 7 10 31 -12z m52 3 c0 -8 -4 -12 -10 -9 -5 3 -10 10 -10
16 0 5 5 9 10 9 6 0 10 -7 10 -16z m5047 -36 c-3 -8 -6 -5 -6 6 -1 11 2 17 5
13 3 -3 4 -12 1 -19z m-1707 -13 c0 -14 -4 -25 -9 -25 -5 0 -16 -3 -25 -6 -13
-5 -13 -1 -3 25 14 37 37 41 37 6z m-439 -32 c3 -36 13 -62 35 -90 20 -27 23
-37 14 -53 -6 -11 -8 -20 -4 -20 3 0 1 -7 -6 -15 -11 -13 -15 -13 -21 -3 -15
22 -11 51 6 44 9 -3 15 0 15 10 0 12 -6 15 -26 10 -22 -6 -24 -4 -16 11 5 11
5 36 0 60 -7 31 -14 43 -31 46 -18 4 -17 5 6 6 15 0 27 -2 28 -6z m3559 3 c0
-11 -19 -15 -25 -6 -3 5 1 10 9 10 9 0 16 -2 16 -4z m80 -5 c0 -5 -9 -7 -20
-4 -11 3 -20 7 -20 9 0 2 9 4 20 4 11 0 20 -4 20 -9z m-1208 -43 c-9 -9 -12
-7 -12 12 0 19 3 21 12 12 9 -9 9 -15 0 -24z m-2448 -23 c-4 -8 -10 -12 -15
-9 -5 3 -9 -4 -9 -15 0 -22 -14 -28 -25 -10 -8 12 23 49 41 49 8 0 11 -6 8
-15z m2152 -28 c1 -7 5 -20 9 -29 4 -11 3 -18 -4 -18 -6 0 -12 6 -12 13 -1 6
-3 22 -4 35 -2 23 7 22 11 -1z m1591 7 c-3 -3 -12 -4 -19 -1 -8 3 -5 6 6 6 11
1 17 -2 13 -5z m-250 -26 c-3 -8 -6 -5 -6 6 -1 11 2 17 5 13 3 -3 4 -12 1 -19z
m178 -48 c-3 -6 4 -10 17 -11 13 0 17 -3 10 -6 -18 -7 -44 5 -37 17 3 5 8 10
11 10 3 0 2 -4 -1 -10z m-53 -31 c-12 -9 -26 -28 -31 -41 -8 -18 -10 -19 -10
-5 -1 21 17 59 33 69 21 14 28 -6 8 -23z m-1494 9 c-3 -7 -13 -13 -23 -13 -10
0 -20 6 -22 13 -3 7 5 12 22 12 17 0 25 -5 23 -12z m-58 -8 c0 -5 -7 -10 -16
-10 -8 0 -12 5 -9 10 3 6 10 10 16 10 5 0 9 -4 9 -10z m71 -28 c-6 -2 -11 -15
-11 -28 0 -18 -5 -24 -22 -24 -17 0 -19 3 -10 12 7 7 12 20 12 30 0 10 7 18
15 18 8 0 16 8 16 18 1 14 2 14 6 -3 3 -10 0 -21 -6 -23z m-1781 -2 c0 -5 -7
-10 -16 -10 -12 0 -14 -3 -6 -13 9 -10 6 -17 -8 -27 -22 -16 -29 -66 -7 -54 6
4 4 -1 -5 -12 -12 -14 -15 -23 -7 -31 7 -7 2 -15 -16 -27 -30 -20 -30 -20 -39
14 -6 18 -5 21 3 10 14 -20 19 -12 23 35 2 22 10 47 18 55 8 8 15 21 16 28 1
6 2 19 3 27 1 16 41 21 41 5z m2395 -19 c-3 -2 0 -10 6 -18 13 -14 2 -17 -25
-7 -23 9 -20 33 4 31 10 -1 17 -3 15 -6z m992 -23 c-3 -7 -5 -2 -5 12 0 14 2
19 5 13 2 -7 2 -19 0 -25z m-1707 -8 c0 -5 -5 -10 -11 -10 -5 0 -7 5 -4 10 3
6 8 10 11 10 2 0 4 -4 4 -10z m1576 -37 c-11 -11 -19 6 -11 24 8 17 8 17 12 0
3 -10 2 -21 -1 -24z m-179 -15 c-3 -7 -5 -2 -5 12 0 14 2 19 5 13 2 -7 2 -19
0 -25z m323 22 c0 -5 -4 -10 -10 -10 -5 0 -10 5 -10 10 0 6 5 10 10 10 6 0 10
-4 10 -10z m60 -9 c0 -6 -4 -13 -10 -16 -5 -3 -10 1 -10 9 0 9 5 16 10 16 6 0
10 -4 10 -9z m-70 -36 c10 -12 10 -15 -4 -15 -9 0 -16 7 -16 15 0 8 2 15 4 15
2 0 9 -7 16 -15z m-78 -13 c-7 -2 -12 -10 -12 -18 0 -8 -5 -14 -11 -14 -5 0
-8 3 -6 8 2 4 7 15 10 25 4 11 12 15 19 11 9 -6 9 -9 0 -12z m166 -58 c-3 -14
-5 -12 -10 9 -3 19 -2 25 4 19 6 -6 8 -18 6 -28z m-205 1 c-3 -9 -8 -13 -11
-11 -3 3 -11 1 -19 -5 -10 -9 -13 -8 -13 4 0 15 13 25 37 26 7 1 10 -6 6 -14z
m87 -9 c0 -3 -4 -8 -10 -11 -5 -3 -10 -1 -10 4 0 6 5 11 10 11 6 0 10 -2 10
-4z m93 -17 c3 -13 1 -19 -6 -16 -15 5 -22 37 -9 37 5 0 12 -9 15 -21z m-93
-13 c0 -11 -19 -15 -25 -6 -3 5 1 10 9 10 9 0 16 -2 16 -4z m10 -47 c0 -5 -4
-9 -10 -9 -5 0 -10 7 -10 16 0 8 5 12 10 9 6 -3 10 -10 10 -16z m65 2 c3 -5 1
-12 -5 -16 -5 -3 -10 1 -10 9 0 18 6 21 15 7z m-171 -26 c3 -9 0 -15 -9 -15
-8 0 -15 7 -15 15 0 8 4 15 9 15 5 0 11 -7 15 -15z m76 -14 c0 -14 -51 -52
-61 -45 -13 8 0 26 15 21 13 -5 38 18 29 27 -4 3 -1 6 5 6 7 0 12 -4 12 -9z
m-113 -63 c-3 -7 -5 -2 -5 12 0 14 2 19 5 13 2 -7 2 -19 0 -25z m149 5 c-6 -6
-36 9 -36 18 0 5 9 4 20 -3 10 -7 18 -14 16 -15z m-66 -13 c0 -5 -2 -10 -4
-10 -3 0 -8 5 -11 10 -3 6 -1 10 4 10 6 0 11 -4 11 -10z m-50 -25 c-5 -14 -7
-25 -3 -25 3 0 4 -2 1 -5 -3 -3 -12 -3 -21 1 -13 5 -13 9 6 30 26 30 29 30 17
-1z m60 -10 c14 -16 10 -18 -14 -9 -9 3 -16 10 -16 15 0 14 16 11 30 -6z m75
-53 c10 2 20 -3 22 -9 3 -8 -5 -13 -22 -13 -14 0 -35 -5 -46 -10 -13 -7 -19
-7 -19 0 0 5 4 10 9 10 5 0 11 10 15 23 4 16 8 19 15 9 4 -8 16 -12 26 -10z
m115 4 c0 -3 -4 -8 -10 -11 -5 -3 -10 -1 -10 4 0 6 5 11 10 11 6 0 10 -2 10
-4z m-275 -26 c-3 -5 0 -10 7 -11 15 -1 -21 -17 -41 -18 -7 -1 -3 8 10 19 27
22 33 24 24 10z m55 -10 c0 -5 7 -10 15 -10 11 0 15 -11 15 -36 0 -22 -4 -33
-10 -29 -6 4 -8 15 -5 24 6 20 -19 46 -35 36 -5 -3 -10 1 -10 9 0 9 7 16 15
16 8 0 15 -4 15 -10z m196 -5 c-25 -19 -37 -19 -30 0 4 8 16 15 28 15 21 -1
21 -1 2 -15z m-251 -35 c-10 -11 -14 -20 -9 -20 5 0 1 -5 -9 -11 -13 -8 -21
-6 -33 5 -14 15 -13 16 9 16 14 0 27 7 31 15 3 8 11 15 17 15 7 0 5 -8 -6 -20z
m-195 -60 c0 -5 -7 -10 -15 -10 -8 0 -15 5 -15 10 0 6 7 10 15 10 8 0 15 -4
15 -10z m118 -2 c-7 -20 -48 -23 -48 -4 0 11 9 16 26 16 16 0 24 -5 22 -12z
m-161 -40 c-3 -8 -6 -5 -6 6 -1 11 2 17 5 13 3 -3 4 -12 1 -19z m183 7 c0 -8
-4 -15 -10 -15 -5 0 -10 7 -10 15 0 8 5 15 10 15 6 0 10 -7 10 -15z m280 -35
c6 0 10 -7 10 -15 0 -20 -12 -19 -37 5 -20 18 -22 18 -29 2 -4 -9 -6 -20 -6
-24 1 -5 -14 -8 -33 -8 -35 0 -87 -18 -81 -29 2 -3 -12 -6 -32 -6 -22 1 -42
-6 -50 -15 -11 -13 -11 -13 -6 3 4 12 1 17 -11 17 -10 0 -13 5 -9 12 4 7 3 8
-4 4 -7 -4 -12 -1 -12 8 0 23 29 20 49 -6 l18 -21 21 21 c12 12 27 22 32 22 6
0 10 9 10 20 0 31 43 47 77 29 23 -12 27 -12 36 2 9 14 12 14 29 -3 10 -10 23
-18 28 -18z m-520 26 c0 -3 -4 -8 -10 -11 -5 -3 -10 -1 -10 4 0 6 5 11 10 11
6 0 10 -2 10 -4z m181 -6 c10 -6 19 -18 19 -27 0 -13 -3 -14 -12 -5 -16 16
-29 15 -22 -2 3 -8 -3 -16 -15 -19 -29 -7 -34 4 -10 21 11 8 18 20 15 28 -6
17 -1 17 25 4z m-61 -15 c0 -17 -2 -18 -24 -9 -23 9 -20 24 4 24 11 0 20 -7
20 -15z m155 -5 c3 -5 2 -10 -4 -10 -5 0 -13 5 -16 10 -3 6 -2 10 4 10 5 0 13
-4 16 -10z m-175 -60 c0 -5 7 -7 15 -4 11 5 13 2 9 -10 -4 -9 -9 -14 -12 -12
-3 3 -11 1 -19 -5 -10 -9 -13 -6 -13 15 0 14 5 26 10 26 6 0 10 -4 10 -10z
m125 -11 c10 -16 -36 -60 -60 -58 -11 1 -29 -1 -40 -5 -37 -14 -44 -15 -50 -6
-9 15 -25 12 -25 -4 0 -16 -17 -31 -47 -40 -19 -6 -22 -4 -16 10 5 13 3 16 -9
11 -16 -6 -35 20 -23 31 3 3 5 0 5 -6 0 -17 47 -15 54 3 3 8 17 15 31 15 14 0
25 5 25 12 0 6 3 8 7 5 3 -4 13 -1 21 6 13 10 14 9 8 -1 -6 -10 -1 -11 21 -6
15 4 36 11 46 16 11 5 17 5 17 -2 0 -5 5 -10 11 -10 6 0 8 9 4 20 -7 21 9 28
20 9z m-271 -104 c3 -9 -3 -19 -16 -26 -11 -6 -18 -7 -16 -2 3 4 8 16 11 26 8
21 13 22 21 2z m-86 -36 c-2 -6 -8 -10 -13 -10 -5 0 -11 4 -13 10 -2 6 4 11
13 11 9 0 15 -5 13 -11z m-548 -164 c0 -2 -7 -5 -15 -9 -9 -3 -15 0 -15 9 0 9
6 12 15 9 8 -4 15 -7 15 -9z m-145 -24 c3 -5 1 -12 -5 -16 -5 -3 -10 1 -10 9
0 18 6 21 15 7z m100 -31 c-10 -11 -22 -17 -27 -14 -4 3 2 14 14 24 29 23 37
17 13 -10z m-197 -42 c-6 -18 -28 -21 -28 -4 0 9 7 16 16 16 9 0 14 -5 12 -12z
m47 -8 c-10 -11 -23 -20 -29 -20 -6 1 0 10 13 20 30 26 39 26 16 0z m-722
-227 c-7 -2 -19 -2 -25 0 -7 3 -2 5 12 5 14 0 19 -2 13 -5z m-5633 -3000 c-18
-33 -79 -98 -85 -92 -6 7 16 54 28 57 4 1 6 5 5 10 -2 4 -6 6 -10 5 -4 -2 -5
4 -2 12 6 14 24 22 57 24 14 1 16 -2 7 -16z m-180 -23 c0 -5 -5 -10 -11 -10
-5 0 -7 5 -4 10 3 6 8 10 11 10 2 0 4 -4 4 -10z m-381 -59 c7 -5 10 -14 7 -20
-11 -17 -23 -13 -29 9 -6 22 0 25 22 11z m375 -27 c23 -9 20 -23 -4 -17 -11 3
-20 9 -20 14 0 11 3 11 24 3z m71 -40 l-16 -29 5 35 c2 19 5 37 5 40 1 2 6 -1
11 -6 7 -7 6 -20 -5 -40z m52 20 c-9 -9 -28 6 -21 18 4 6 10 6 17 -1 6 -6 8
-13 4 -17z m-194 -58 c-24 -14 -43 -16 -43 -5 0 5 -7 9 -16 9 -12 0 -15 -7
-10 -27 3 -16 3 -22 0 -15 -3 6 -12 12 -20 12 -8 0 -14 9 -14 20 0 17 7 20 43
21 23 1 48 1 55 0 6 -1 12 3 12 9 0 5 -15 11 -32 11 -28 2 -29 2 -8 6 14 3 30
9 35 14 7 7 11 1 13 -17 3 -18 -2 -31 -15 -38z m-363 7 c0 -5 -16 -18 -36 -31
l-35 -23 12 23 c7 13 17 26 23 30 14 10 36 10 36 1z m17 -45 c-3 -8 -6 -5 -6
6 -1 11 2 17 5 13 3 -3 4 -12 1 -19z m439 6 c-9 -8 -16 -20 -16 -26 0 -6 -3
-9 -6 -6 -8 9 14 48 27 48 6 0 3 -7 -5 -16z m-335 -27 c-6 -8 -7 -18 -3 -22 4
-5 2 -5 -5 -1 -14 8 -6 36 9 36 7 0 6 -5 -1 -13z m99 -17 c-5 -10 -7 -26 -4
-34 4 -11 1 -16 -11 -16 -9 0 -13 5 -10 11 4 5 -9 3 -28 -5 -43 -17 -51 -12
-30 20 8 13 11 24 7 24 -25 1 20 15 50 17 32 1 35 0 26 -17z m-326 -35 c-4 -8
-13 -15 -21 -15 -13 0 -13 3 -3 15 7 8 16 15 21 15 5 0 6 -7 3 -15z m216 -15
c0 -5 -4 -11 -10 -15 -5 -3 -7 -12 -4 -20 4 -8 10 -13 14 -10 5 3 8 -3 7 -14
-1 -22 -33 -32 -63 -20 -16 7 -16 8 6 8 18 1 26 7 27 21 2 22 -7 26 -24 9 -8
-8 -13 -5 -18 11 -4 13 -3 25 3 29 16 9 62 10 62 1z m160 2 c0 -5 -7 -9 -15
-9 -8 0 -15 4 -15 9 0 4 7 8 15 8 8 0 15 -4 15 -8z m-455 -69 c-19 -21 -37
-35 -40 -31 -7 7 58 78 67 72 4 -2 -9 -21 -27 -41z m325 37 c0 -5 -2 -10 -4
-10 -3 0 -8 5 -11 10 -3 6 -1 10 4 10 6 0 11 -4 11 -10z m60 -30 c-14 -11 -31
-20 -37 -20 -12 0 -18 -14 -13 -35 1 -5 -4 -5 -10 1 -26 26 15 72 65 73 18 1
18 -1 -5 -19z m-166 -25 c19 -15 19 -15 -1 -15 -25 0 -39 -15 -23 -25 5 -3 10
-14 9 -23 0 -11 -3 -12 -6 -4 -2 6 -11 12 -19 12 -15 0 -16 34 -1 58 10 15 17
15 41 -3z m-260 -40 c4 -10 -1 -15 -15 -15 -17 0 -18 2 -7 15 16 18 15 18 22
0z m290 0 c3 -9 0 -15 -8 -15 -8 0 -16 7 -20 15 -3 9 0 15 8 15 8 0 16 -7 20
-15z m197 -18 c-10 -9 -11 -8 -5 6 3 10 9 15 12 12 3 -3 0 -11 -7 -18z m-41
-32 c0 -3 -8 -14 -18 -25 -18 -19 -47 -14 -34 6 10 16 52 31 52 19z m-520 -47
c0 -5 -4 -8 -10 -8 -5 0 -10 10 -10 23 0 18 2 19 10 7 5 -8 10 -18 10 -22z
m-173 -210 c-3 -8 -6 -5 -6 6 -1 11 2 17 5 13 3 -3 4 -12 1 -19z"/>
<path d="M2470 12991 c0 -6 4 -13 10 -16 6 -3 7 1 4 9 -7 18 -14 21 -14 7z"/>
<path d="M10563 11642 c-9 -15 -8 -19 3 -19 8 0 14 9 14 19 0 10 -1 18 -3 18
-1 0 -7 -8 -14 -18z"/>
<path d="M11009 9574 c-6 -8 -10 -14 -8 -15 31 -6 40 -5 49 6 8 9 5 14 -9 18
-11 3 -25 -1 -32 -9z"/>
<path d="M2831 14671 c-8 -5 -9 -11 -3 -15 5 -3 12 1 16 9 6 17 6 18 -13 6z"/>
<path d="M2793 14594 c-7 -7 -13 -18 -13 -24 0 -5 -5 -10 -11 -10 -5 0 -7 -5
-3 -11 3 -6 14 2 26 21 20 35 21 47 1 24z"/>
<path d="M2951 14534 c0 -11 3 -14 6 -6 3 7 2 16 -1 19 -3 4 -6 -2 -5 -13z"/>
<path d="M2780 14448 c0 -10 -9 -22 -20 -28 -20 -11 -27 -44 -11 -54 5 -4 7 3
4 14 -4 14 -1 19 8 15 18 -6 39 38 28 57 -7 10 -9 9 -9 -4z"/>
<path d="M2820 14419 c0 -11 5 -17 10 -14 6 3 10 13 10 21 0 8 -4 14 -10 14
-5 0 -10 -9 -10 -21z"/>
<path d="M2721 14254 c0 -11 3 -14 6 -6 3 7 2 16 -1 19 -3 4 -6 -2 -5 -13z"/>
<path d="M2700 14220 c0 -5 5 -10 11 -10 5 0 7 5 4 10 -3 6 -8 10 -11 10 -2 0
-4 -4 -4 -10z"/>
<path d="M2602 14180 c0 -14 2 -19 5 -12 2 6 2 18 0 25 -3 6 -5 1 -5 -13z"/>
<path d="M2660 14110 c0 -11 2 -20 4 -20 2 0 6 9 9 20 3 11 1 20 -4 20 -5 0
-9 -9 -9 -20z"/>
<path d="M2590 14111 c0 -6 4 -13 10 -16 6 -3 7 1 4 9 -7 18 -14 21 -14 7z"/>
<path d="M2532 13800 c0 -19 2 -27 5 -17 2 9 2 25 0 35 -3 9 -5 1 -5 -18z"/>
<path d="M2291 12774 c0 -11 3 -14 6 -6 3 7 2 16 -1 19 -3 4 -6 -2 -5 -13z"/>
<path d="M2330 12389 c0 -5 5 -7 10 -4 6 3 10 8 10 11 0 2 -4 4 -10 4 -5 0
-10 -5 -10 -11z"/>
<path d="M9876 12351 c-4 -7 -5 -15 -2 -18 9 -9 19 4 14 18 -4 11 -6 11 -12 0z"/>
<path d="M2352 12300 c0 -14 2 -19 5 -12 2 6 2 18 0 25 -3 6 -5 1 -5 -13z"/>
<path d="M9141 12264 c0 -11 3 -14 6 -6 3 7 2 16 -1 19 -3 4 -6 -2 -5 -13z"/>
<path d="M9130 12190 c0 -5 7 -10 15 -10 8 0 15 5 15 10 0 6 -7 10 -15 10 -8
0 -15 -4 -15 -10z"/>
<path d="M9133 12133 c-16 -6 -5 -33 13 -33 8 0 14 3 14 8 0 15 -15 29 -27 25z"/>
<path d="M9020 12076 c-9 -12 -8 -15 8 -13 12 0 18 6 15 14 -6 16 -8 16 -23
-1z"/>
<path d="M9124 12082 c4 -6 -2 -20 -14 -32 -15 -15 -17 -20 -5 -20 8 0 18 0
22 0 12 -1 14 48 2 56 -8 4 -9 3 -5 -4z"/>
<path d="M8978 12053 c7 -3 16 -2 19 1 4 3 -2 6 -13 5 -11 0 -14 -3 -6 -6z"/>
<path d="M9717 12044 c-8 -8 1 -24 14 -24 5 0 9 7 9 15 0 15 -12 20 -23 9z"/>
<path d="M8962 12010 c-8 -13 -8 -20 -2 -20 6 0 13 7 17 15 9 24 -1 27 -15 5z"/>
<path d="M9061 12014 c0 -11 3 -14 6 -6 3 7 2 16 -1 19 -3 4 -6 -2 -5 -13z"/>
<path d="M8840 11980 c0 -5 5 -10 10 -10 6 0 10 5 10 10 0 6 -4 10 -10 10 -5
0 -10 -4 -10 -10z"/>
<path d="M8883 11953 c0 -8 7 -11 14 -8 8 3 19 5 24 5 5 0 9 4 9 10 0 5 -10 9
-23 8 -13 -1 -24 -8 -24 -15z"/>
<path d="M9726 11945 c-3 -8 -1 -15 4 -15 13 0 22 18 11 24 -5 3 -11 -1 -15
-9z"/>
<path d="M8756 11915 c4 -8 10 -15 15 -15 4 0 6 7 3 15 -4 8 -10 15 -15 15 -4
0 -6 -7 -3 -15z"/>
<path d="M9008 11883 c7 -3 16 -2 19 1 4 3 -2 6 -13 5 -11 0 -14 -3 -6 -6z"/>
<path d="M10195 11850 c-4 -7 -2 -16 6 -21 18 -11 23 -4 11 17 -7 12 -11 13
-17 4z"/>
<path d="M8841 11824 c0 -11 3 -14 6 -6 3 7 2 16 -1 19 -3 4 -6 -2 -5 -13z"/>
<path d="M8965 11830 c-4 -6 -3 -16 3 -22 6 -6 12 -6 17 2 4 6 3 16 -3 22 -6
6 -12 6 -17 -2z"/>
<path d="M9245 11800 c-3 -5 1 -10 9 -10 9 0 16 5 16 10 0 6 -4 10 -9 10 -6 0
-13 -4 -16 -10z"/>
<path d="M8624 11785 c6 -7 13 -9 16 -5 3 4 12 9 20 12 8 3 1 6 -16 5 -25 0
-29 -3 -20 -12z"/>
<path d="M8935 11781 c-3 -5 -1 -12 5 -16 5 -3 10 1 10 9 0 18 -6 21 -15 7z"/>
<path d="M9226 11763 c-6 -14 -5 -15 5 -6 7 7 10 15 7 18 -3 3 -9 -2 -12 -12z"/>
<path d="M8410 11747 c0 -8 7 -17 15 -21 8 -3 15 -2 15 3 0 5 -7 14 -15 21
-12 10 -15 10 -15 -3z"/>
<path d="M8966 11751 c-4 -7 -5 -15 -2 -18 9 -9 19 4 14 18 -4 11 -6 11 -12 0z"/>
<path d="M9820 11710 c0 -5 7 -10 16 -10 8 0 12 5 9 10 -3 6 -10 10 -16 10 -5
0 -9 -4 -9 -10z"/>
<path d="M6280 11686 c0 -17 14 -29 23 -20 8 8 -3 34 -14 34 -5 0 -9 -6 -9
-14z"/>
<path d="M8500 11690 c0 -5 5 -10 10 -10 6 0 10 5 10 10 0 6 -4 10 -10 10 -5
0 -10 -4 -10 -10z"/>
<path d="M9046 11685 c4 -8 10 -15 15 -15 4 0 6 7 3 15 -4 8 -10 15 -15 15 -4
0 -6 -7 -3 -15z"/>
<path d="M8957 11684 c-4 -4 -7 -16 -7 -26 0 -10 -4 -18 -10 -18 -5 0 -10 -8
-10 -17 1 -17 1 -17 14 0 16 21 23 21 42 2 9 -8 19 -15 23 -15 4 0 8 7 8 15 0
8 -6 15 -13 15 -8 0 -19 11 -27 25 -7 14 -16 23 -20 19z"/>
<path d="M6250 11674 c0 -7 27 -34 34 -34 4 0 1 9 -6 20 -12 19 -28 27 -28 14z"/>
<path d="M8407 11673 c-4 -3 -7 -11 -7 -17 0 -6 5 -5 12 2 6 6 9 14 7 17 -3 3
-9 2 -12 -2z"/>
<path d="M8240 11622 c0 -7 -6 -12 -13 -12 -14 0 -39 -35 -30 -43 3 -3 17 8
30 24 14 16 23 33 19 36 -3 4 -6 1 -6 -5z"/>
<path d="M9180 11622 c0 -5 7 -15 15 -22 8 -7 15 -8 15 -2 0 5 -7 15 -15 22
-8 7 -15 8 -15 2z"/>
<path d="M9240 11615 c7 -8 17 -15 22 -15 5 0 3 7 -6 15 -8 8 -18 15 -22 15
-3 0 -1 -7 6 -15z"/>
<path d="M9670 11621 c0 -5 7 -12 16 -15 14 -5 15 -4 4 9 -14 17 -20 19 -20 6z"/>
<path d="M6650 11594 c0 -5 7 -18 15 -28 12 -16 15 -17 15 -4 0 8 -7 21 -15
28 -8 7 -15 9 -15 4z"/>
<path d="M6030 11540 c0 -19 3 -21 12 -12 9 9 9 15 0 24 -9 9 -12 7 -12 -12z"/>
<path d="M9210 11542 c0 -5 7 -9 15 -9 8 0 15 4 15 9 0 4 -7 8 -15 8 -8 0 -15
-4 -15 -8z"/>
<path d="M8200 11525 c0 -8 5 -15 10 -15 6 0 10 7 10 15 0 8 -4 15 -10 15 -5
0 -10 -7 -10 -15z"/>
<path d="M9180 11529 c0 -5 5 -7 10 -4 6 3 10 8 10 11 0 2 -4 4 -10 4 -5 0
-10 -5 -10 -11z"/>
<path d="M8918 11505 c-4 -17 -1 -25 8 -25 8 0 14 7 14 15 0 8 0 18 1 22 2 21
-19 10 -23 -12z"/>
<path d="M6078 11513 c7 -3 16 -2 19 1 4 3 -2 6 -13 5 -11 0 -14 -3 -6 -6z"/>
<path d="M8850 11500 c0 -11 5 -20 10 -20 6 0 10 9 10 20 0 11 -4 20 -10 20
-5 0 -10 -9 -10 -20z"/>
<path d="M8880 11475 c0 -8 5 -15 10 -15 6 0 10 7 10 15 0 8 -4 15 -10 15 -5
0 -10 -7 -10 -15z"/>
<path d="M8912 11454 c-16 -8 -20 -14 -12 -19 7 -4 19 0 28 9 21 20 13 26 -16
10z"/>
<path d="M9990 11410 c0 -5 5 -10 10 -10 6 0 10 5 10 10 0 6 -4 10 -10 10 -5
0 -10 -4 -10 -10z"/>
<path d="M6776 11401 c-3 -5 1 -14 8 -20 12 -10 13 -8 9 8 -6 23 -9 25 -17 12z"/>
<path d="M8894 11324 c3 -9 6 -18 6 -21 0 -3 7 0 15 7 17 14 11 30 -12 30 -10
0 -13 -6 -9 -16z"/>
<path d="M6812 11305 c0 -16 2 -22 5 -12 2 9 2 23 0 30 -3 6 -5 -1 -5 -18z"/>
<path d="M5476 11305 c-3 -9 0 -15 9 -15 9 0 12 6 9 15 -4 8 -7 15 -9 15 -2 0
-5 -7 -9 -15z"/>
<path d="M5405 11291 c-3 -5 -1 -12 5 -16 5 -3 10 1 10 9 0 18 -6 21 -15 7z"/>
<path d="M8874 11289 c-3 -6 -1 -16 5 -22 8 -8 11 -5 11 11 0 24 -5 28 -16 11z"/>
<path d="M10625 11290 c-3 -5 -1 -10 4 -10 6 0 11 5 11 10 0 6 -2 10 -4 10 -3
0 -8 -4 -11 -10z"/>
<path d="M5360 11260 c0 -5 5 -10 10 -10 6 0 10 5 10 10 0 6 -4 10 -10 10 -5
0 -10 -4 -10 -10z"/>
<path d="M8913 11245 c-3 -9 -3 -18 -1 -21 3 -3 8 4 11 16 6 23 -1 27 -10 5z"/>
<path d="M7960 11230 c0 -5 9 -10 20 -10 11 0 20 5 20 10 0 6 -9 10 -20 10
-11 0 -20 -4 -20 -10z"/>
<path d="M8816 11214 c-8 -20 0 -32 14 -18 5 5 5 15 1 22 -6 11 -10 10 -15 -4z"/>
<path d="M8970 11180 c0 -5 5 -10 11 -10 5 0 7 5 4 10 -3 6 -8 10 -11 10 -2 0
-4 -4 -4 -10z"/>
<path d="M8941 11164 c0 -11 3 -14 6 -6 3 7 2 16 -1 19 -3 4 -6 -2 -5 -13z"/>
<path d="M3175 11160 c-3 -5 3 -10 15 -10 12 0 18 5 15 10 -3 6 -10 10 -15 10
-5 0 -12 -4 -15 -10z"/>
<path d="M3236 11145 c4 -8 11 -15 16 -15 6 0 5 6 -2 15 -7 8 -14 15 -16 15
-2 0 -1 -7 2 -15z"/>
<path d="M3434 11146 c-8 -22 1 -30 21 -19 15 9 15 11 1 22 -13 11 -17 10 -22
-3z"/>
<path d="M8910 11149 c0 -5 5 -7 10 -4 6 3 10 8 10 11 0 2 -4 4 -10 4 -5 0
-10 -5 -10 -11z"/>
<path d="M3406 11115 c4 -8 8 -15 10 -15 2 0 4 7 4 15 0 8 -4 15 -10 15 -5 0
-7 -7 -4 -15z"/>
<path d="M4722 11090 c-23 -10 -44 -48 -35 -64 3 -4 16 5 28 20 20 25 25 27
39 15 10 -9 16 -10 16 -2 0 6 -4 11 -10 11 -5 0 -7 7 -4 15 7 17 -1 18 -34 5z"/>
<path d="M5010 11090 c-9 -6 -10 -10 -3 -10 6 0 15 5 18 10 8 12 4 12 -15 0z"/>
<path d="M3473 11083 c-17 -6 6 -53 26 -53 11 0 12 3 5 8 -7 4 -14 16 -15 28
-2 11 -9 19 -16 17z"/>
<path d="M3360 11070 c0 -5 5 -10 11 -10 5 0 7 5 4 10 -3 6 -8 10 -11 10 -2 0
-4 -4 -4 -10z"/>
<path d="M3420 11003 c0 -29 2 -29 19 5 10 18 9 22 -4 22 -10 0 -15 -9 -15
-27z"/>
<path d="M7946 11006 c3 -9 11 -16 16 -16 13 0 5 23 -10 28 -7 2 -10 -2 -6
-12z"/>
<path d="M3501 10996 c-8 -9 -11 -19 -7 -23 9 -9 29 13 24 27 -2 8 -8 7 -17
-4z"/>
<path d="M10368 11003 c7 -3 16 -2 19 1 4 3 -2 6 -13 5 -11 0 -14 -3 -6 -6z"/>
<path d="M9098 10973 c7 -3 16 -2 19 1 4 3 -2 6 -13 5 -11 0 -14 -3 -6 -6z"/>
<path d="M3512 10900 c-7 -11 -9 -20 -4 -20 10 0 32 22 32 32 0 15 -15 8 -28
-12z"/>
<path d="M4700 10910 c0 -5 5 -10 10 -10 6 0 10 5 10 10 0 6 -4 10 -10 10 -5
0 -10 -4 -10 -10z"/>
<path d="M9958 10883 c7 -3 16 -2 19 1 4 3 -2 6 -13 5 -11 0 -14 -3 -6 -6z"/>
<path d="M4716 10851 c-3 -5 0 -11 8 -14 15 -6 26 1 26 15 0 11 -27 10 -34 -1z"/>
<path d="M9884 10834 c3 -9 6 -18 6 -21 0 -3 7 0 15 7 21 17 19 25 -6 27 -15
1 -19 -2 -15 -13z"/>
<path d="M4750 10821 c0 -6 4 -13 10 -16 6 -3 7 1 4 9 -7 18 -14 21 -14 7z"/>
<path d="M3477 10809 c8 -8 16 -8 30 0 16 9 14 10 -11 11 -22 0 -27 -3 -19
-11z"/>
<path d="M10005 10790 c-3 -5 3 -10 15 -10 12 0 18 5 15 10 -3 6 -10 10 -15
10 -5 0 -12 -4 -15 -10z"/>
<path d="M9085 10780 c-3 -5 -1 -10 4 -10 6 0 11 5 11 10 0 6 -2 10 -4 10 -3
0 -8 -4 -11 -10z"/>
<path d="M2990 10749 c0 -5 5 -7 10 -4 6 3 10 8 10 11 0 2 -4 4 -10 4 -5 0
-10 -5 -10 -11z"/>
<path d="M6978 10743 c5 -10 7 -24 5 -31 -3 -7 -2 -20 3 -30 6 -14 8 -11 14
13 8 39 1 65 -17 65 -10 0 -11 -5 -5 -17z"/>
<path d="M4695 10710 c-3 -5 -2 -10 4 -10 5 0 13 5 16 10 3 6 2 10 -4 10 -5 0
-13 -4 -16 -10z"/>
<path d="M3495 10660 c-4 -6 -5 -12 -4 -13 2 -1 14 -8 27 -15 27 -15 28 -8 3
19 -13 14 -21 17 -26 9z"/>
<path d="M10205 10610 c3 -5 11 -10 16 -10 6 0 7 5 4 10 -3 6 -11 10 -16 10
-6 0 -7 -4 -4 -10z"/>
<path d="M7850 10560 c0 -5 7 -10 15 -10 8 0 15 5 15 10 0 6 -7 10 -15 10 -8
0 -15 -4 -15 -10z"/>
<path d="M3578 10543 c7 -3 16 -2 19 1 4 3 -2 6 -13 5 -11 0 -14 -3 -6 -6z"/>
<path d="M3640 10529 c0 -5 5 -7 10 -4 6 3 10 8 10 11 0 2 -4 4 -10 4 -5 0
-10 -5 -10 -11z"/>
<path d="M7111 10504 c0 -11 3 -14 6 -6 3 7 2 16 -1 19 -3 4 -6 -2 -5 -13z"/>
<path d="M9021 10474 c0 -11 3 -14 6 -6 3 7 2 16 -1 19 -3 4 -6 -2 -5 -13z"/>
<path d="M7813 10433 c-18 -7 -16 -23 2 -23 8 0 15 7 15 15 0 8 -1 15 -2 14
-2 0 -9 -3 -15 -6z"/>
<path d="M7000 10393 c0 -24 3 -33 9 -25 7 12 4 62 -5 62 -2 0 -4 -17 -4 -37z"/>
<path d="M7758 10391 c-13 -18 -18 -21 -40 -21 -7 0 2 -10 20 -21 17 -12 32
-25 32 -31 0 -5 5 -6 11 -3 7 5 5 13 -5 24 -19 21 -20 43 -4 59 7 7 9 12 6 12
-4 0 -13 -8 -20 -19z"/>
<path d="M7815 10380 c4 -6 1 -17 -5 -25 -7 -8 -10 -21 -7 -29 3 -8 2 -16 -3
-18 -4 -2 -2 -9 6 -16 12 -11 14 -7 14 22 0 20 6 38 15 43 12 7 11 11 -6 21
-13 8 -18 9 -14 2z"/>
<path d="M9620 10340 c0 -5 5 -10 10 -10 6 0 10 5 10 10 0 6 -4 10 -10 10 -5
0 -10 -4 -10 -10z"/>
<path d="M10000 10335 c0 -8 2 -15 4 -15 2 0 6 7 10 15 3 8 1 15 -4 15 -6 0
-10 -7 -10 -15z"/>
<path d="M9973 10299 c-23 -7 -31 -14 -26 -25 3 -9 9 -11 12 -6 3 5 21 13 39
17 17 3 32 11 32 16 0 11 -14 10 -57 -2z"/>
<path d="M7160 10275 c0 -8 4 -15 10 -15 5 0 7 7 4 15 -4 8 -8 15 -10 15 -2 0
-4 -7 -4 -15z"/>
<path d="M7791 10251 c-10 -7 -10 -10 -1 -16 6 -4 16 -3 22 3 13 13 -4 23 -21
13z"/>
<path d="M7167 10230 c3 -11 9 -20 13 -20 5 0 6 9 3 20 -3 11 -9 20 -13 20 -5
0 -6 -9 -3 -20z"/>
<path d="M7299 10245 c-3 -2 -3 -20 -1 -39 3 -25 8 -33 18 -29 9 3 12 15 9 31
-5 27 -18 46 -26 37z"/>
<path d="M8997 10239 c-25 -15 -21 -27 8 -21 25 4 32 16 17 26 -4 2 -15 0 -25
-5z"/>
<path d="M10113 10160 c-9 -13 -9 -21 -2 -26 13 -8 22 1 24 26 2 25 -7 25 -22
0z"/>
<path d="M7300 10135 c0 -14 2 -25 4 -25 2 0 6 11 8 25 3 14 1 25 -3 25 -5 0
-9 -11 -9 -25z"/>
<path d="M7405 10128 c2 -10 -1 -21 -6 -24 -5 -3 -9 -39 -9 -80 0 -62 4 -79
21 -97 l21 -22 -4 67 c-1 36 0 70 4 73 4 4 1 14 -7 22 -11 11 -12 19 -5 34 7
12 7 19 1 19 -5 0 -11 6 -14 13 -2 6 -3 4 -2 -5z"/>
<path d="M10018 10123 c7 -3 16 -2 19 1 4 3 -2 6 -13 5 -11 0 -14 -3 -6 -6z"/>
<path d="M7715 10069 c6 -33 15 -36 15 -6 0 15 -4 27 -9 27 -6 0 -8 -10 -6
-21z"/>
<path d="M7774 10079 c-3 -6 -2 -15 3 -20 5 -5 9 -1 10 11 2 22 -2 25 -13 9z"/>
<path d="M7690 9960 c0 -5 4 -10 9 -10 6 0 13 5 16 10 3 6 -1 10 -9 10 -9 0
-16 -4 -16 -10z"/>
<path d="M8883 9951 c1 -12 7 -17 19 -13 15 3 15 6 3 18 -18 19 -24 18 -22 -5z"/>
<path d="M5750 9911 c0 -24 5 -41 14 -44 16 -6 30 19 20 35 -4 6 -1 14 6 18
17 10 4 30 -21 30 -15 0 -19 -7 -19 -39z"/>
<path d="M8892 9921 c-11 -7 -11 -9 2 -14 10 -4 16 -1 16 8 0 17 -1 17 -18 6z"/>
<path d="M7283 9894 c-9 -19 -9 -32 -2 -47 8 -15 8 -22 -2 -28 -11 -7 -10 -9
4 -9 14 0 17 9 17 55 0 30 -1 55 -2 55 -2 0 -8 -12 -15 -26z"/>
<path d="M7350 9901 c0 -5 5 -13 10 -16 6 -3 10 -2 10 4 0 5 -4 13 -10 16 -5
3 -10 2 -10 -4z"/>
<path d="M7681 9893 c-7 -8 -11 -16 -8 -19 2 -2 10 2 17 11 17 20 9 27 -9 8z"/>
<path d="M3650 9825 c0 -8 5 -15 10 -15 6 0 10 7 10 15 0 8 -4 15 -10 15 -5 0
-10 -7 -10 -15z"/>
<path d="M7650 9790 c-8 -5 -11 -12 -7 -16 4 -4 13 -2 19 4 15 15 7 24 -12 12z"/>
<path d="M5910 9761 c0 -5 9 -7 20 -4 11 3 20 7 20 9 0 2 -9 4 -20 4 -11 0
-20 -4 -20 -9z"/>
<path d="M7637 9723 c-4 -3 -7 -13 -7 -21 0 -12 3 -12 15 -2 8 7 15 16 15 21
0 11 -14 12 -23 2z"/>
<path d="M7475 9680 c3 -4 16 -7 30 -7 13 0 23 3 20 7 -3 4 -16 8 -30 8 -13 0
-23 -4 -20 -8z"/>
<path d="M7380 9660 c-12 -8 -13 -12 -2 -19 11 -6 11 -11 -2 -24 -9 -8 -16
-24 -16 -35 0 -10 -3 -22 -7 -26 -9 -9 -10 -86 0 -86 4 0 7 9 7 20 0 31 1 34
12 48 8 9 14 6 24 -14 8 -14 12 -30 9 -35 -8 -12 6 -59 17 -59 6 0 7 11 4 24
-3 14 -2 28 4 31 7 4 6 14 -2 28 -15 29 -20 94 -7 102 6 4 17 -1 24 -11 18
-24 19 -11 3 18 -13 22 -38 47 -48 48 -3 0 -12 -5 -20 -10z"/>
<path d="M7550 9655 c0 -8 5 -15 10 -15 6 0 10 7 10 15 0 8 -4 15 -10 15 -5 0
-10 -7 -10 -15z"/>
<path d="M7587 9631 c-17 -17 -24 -32 -18 -35 6 -4 8 -12 6 -19 -4 -12 -13
-60 -19 -107 -2 -14 -7 -41 -11 -60 l-6 -35 19 22 c11 12 22 45 26 72 4 32 12
51 20 51 9 0 12 17 11 60 -1 33 2 60 7 60 4 0 8 5 8 10 0 17 -14 11 -43 -19z"/>
<path d="M7470 9631 c0 -6 5 -13 11 -16 7 -5 5 -13 -7 -26 -15 -17 -15 -19 0
-34 15 -15 16 -15 16 4 0 12 6 21 15 21 8 0 15 7 15 16 0 8 -4 12 -10 9 -9 -6
-14 8 -11 28 0 4 -6 7 -14 7 -8 0 -15 -4 -15 -9z"/>
<path d="M7515 9630 c3 -5 8 -10 11 -10 2 0 4 5 4 10 0 6 -5 10 -11 10 -5 0
-7 -4 -4 -10z"/>
<path d="M7305 9620 c-3 -5 1 -10 9 -10 9 0 16 5 16 10 0 6 -4 10 -9 10 -6 0
-13 -4 -16 -10z"/>
<path d="M7295 9569 c-4 -6 -5 -13 -2 -16 7 -7 27 6 27 18 0 12 -17 12 -25 -2z"/>
<path d="M7473 9495 c-9 -10 -9 -15 -1 -17 8 -3 8 -10 -1 -26 -11 -20 -10 -21
11 -13 24 9 37 31 18 31 -6 0 -9 4 -6 8 10 16 -8 30 -21 17z"/>
<path d="M7292 9480 c0 -14 2 -19 5 -12 2 6 2 18 0 25 -3 6 -5 1 -5 -13z"/>
<path d="M10085 9491 c-3 -5 -1 -12 5 -16 5 -3 10 1 10 9 0 18 -6 21 -15 7z"/>
<path d="M7410 9403 c0 -5 5 -15 10 -23 8 -12 10 -11 10 8 0 12 -4 22 -10 22
-5 0 -10 -3 -10 -7z"/>
<path d="M9925 9400 c-18 -8 -17 -9 8 -9 15 -1 27 4 27 9 0 12 -8 12 -35 0z"/>
<path d="M7457 9380 c3 -11 9 -20 14 -20 11 0 11 3 3 24 -9 23 -23 20 -17 -4z"/>
<path d="M7422 9315 c-1 -16 3 -25 12 -25 7 0 16 11 18 25 4 18 1 25 -11 25
-11 0 -17 -9 -19 -25z"/>
<path d="M9970 9325 c0 -9 6 -12 15 -9 8 4 15 7 15 9 0 2 -7 5 -15 9 -9 3 -15
0 -15 -9z"/>
<path d="M7510 9301 c0 -5 7 -14 15 -21 12 -10 15 -10 15 3 0 8 -7 17 -15 21
-8 3 -15 2 -15 -3z"/>
<path d="M7417 9266 c-4 -10 -5 -21 -2 -24 9 -9 17 6 13 25 -3 17 -4 17 -11
-1z"/>
<path d="M9688 9262 c-4 -16 0 -23 16 -29 34 -11 46 -12 46 -2 0 5 -9 9 -20 9
-12 0 -24 9 -29 22 l-8 22 -5 -22z"/>
<path d="M9650 9204 c0 -8 5 -12 10 -9 6 3 10 10 10 16 0 5 -4 9 -10 9 -5 0
-10 -7 -10 -16z"/>
<path d="M7415 9201 c-3 -5 -2 -12 3 -15 5 -3 9 1 9 9 0 17 -3 19 -12 6z"/>
<path d="M7361 9174 c0 -11 3 -14 6 -6 3 7 2 16 -1 19 -3 4 -6 -2 -5 -13z"/>
<path d="M9532 9074 c10 -10 20 -15 24 -12 3 4 -5 12 -18 18 -22 12 -22 12 -6
-6z"/>
<path d="M9417 9040 c3 -11 7 -20 9 -20 2 0 4 9 4 20 0 11 -4 20 -9 20 -5 0
-7 -9 -4 -20z"/>
<path d="M9225 8980 c-3 -5 1 -10 10 -10 9 0 13 5 10 10 -3 6 -8 10 -10 10 -2
0 -7 -4 -10 -10z"/>
<path d="M3640 8890 c0 -5 5 -10 11 -10 5 0 7 5 4 10 -3 6 -8 10 -11 10 -2 0
-4 -4 -4 -10z"/>
<path d="M3796 8655 c-11 -8 -17 -17 -14 -20 2 -3 13 4 23 15 21 23 18 25 -9
5z"/>
<path d="M3842 8647 c-7 -8 -9 -17 -5 -20 3 -4 -1 -7 -10 -7 -9 0 -17 -4 -17
-10 0 -5 -13 -7 -30 -3 -23 4 -30 2 -30 -10 0 -8 -5 -17 -10 -19 -6 -2 -4 -13
6 -26 15 -22 17 -22 42 -6 24 16 26 16 43 -5 9 -11 22 -21 28 -21 6 0 11 -4
11 -10 0 -5 7 -7 15 -4 21 8 19 -6 -2 -22 -16 -12 -16 -12 5 -7 12 3 22 1 22
-5 0 -5 -6 -10 -12 -9 -35 1 -46 -5 -50 -28 -6 -30 8 -34 17 -5 8 24 28 26 45
5 13 -16 8 -19 -24 -15 -14 1 -17 -3 -12 -15 5 -14 2 -16 -13 -12 -14 3 -18 1
-14 -9 3 -8 9 -12 14 -9 13 9 49 -18 49 -37 0 -10 -7 -18 -16 -18 -11 0 -15 6
-11 20 6 23 -6 26 -25 7 -16 -18 -48 -10 -41 10 5 12 7 12 15 1 6 -8 7 -5 2
12 -8 28 -54 90 -68 90 -4 0 -5 12 -2 26 5 17 3 23 -4 19 -6 -4 -17 -1 -25 5
-20 17 -19 1 2 -22 14 -15 14 -22 3 -42 -7 -13 -10 -28 -6 -34 7 -11 -28 -45
-37 -35 -4 3 -7 -6 -7 -20 0 -15 4 -27 10 -27 5 0 7 7 4 15 -4 10 0 15 10 15
9 0 19 7 22 15 10 24 24 17 39 -19 8 -18 26 -41 40 -50 24 -16 35 -46 16 -46
-5 0 -22 15 -36 33 -15 17 -24 26 -20 20 3 -7 1 -13 -4 -13 -6 0 -11 11 -11
24 0 14 -5 28 -12 32 -8 5 -9 2 -5 -10 5 -13 3 -17 -6 -13 -8 3 -13 -4 -12
-22 0 -21 -4 -26 -22 -24 -16 2 -21 -2 -17 -12 8 -19 29 -19 59 1 14 9 25 12
25 6 0 -6 -4 -14 -10 -17 -5 -3 -10 -14 -10 -24 0 -10 -9 -21 -20 -24 -18 -4
-20 -2 -14 16 6 19 5 20 -10 8 -9 -7 -16 -20 -16 -27 0 -8 -7 -14 -15 -14 -21
0 -30 -27 -15 -44 15 -20 -20 -39 -55 -30 -16 4 -25 2 -25 -6 0 -7 -8 -9 -20
-5 -23 7 -28 -13 -5 -21 24 -10 17 -34 -10 -35 -39 -2 -43 -3 -55 -15 -9 -9
-18 -8 -38 2 -31 16 -45 8 -19 -10 23 -18 22 -21 -9 -24 -14 -1 -23 2 -19 8 3
6 -1 10 -11 10 -12 0 -15 -6 -11 -21 8 -31 -2 -48 -24 -42 -14 4 -19 0 -19
-15 0 -11 -2 -27 -5 -35 -4 -8 0 -14 10 -14 8 0 15 6 15 14 0 7 8 13 18 13 15
0 18 -7 15 -39 -3 -38 -2 -39 34 -46 21 -4 44 -16 51 -27 8 -10 20 -17 26 -15
16 7 74 -45 69 -60 -9 -25 -58 -15 -133 28 -8 5 -24 13 -35 18 -11 5 -30 18
-41 29 -12 11 -42 27 -68 36 -26 9 -58 23 -71 32 -13 9 -30 17 -37 18 -39 8
-68 19 -68 26 0 9 -70 19 -75 10 -2 -3 -22 -5 -44 -4 -25 1 -45 -4 -52 -12 -6
-8 -15 -14 -18 -14 -8 0 -5 66 3 79 3 5 -1 14 -9 21 -13 11 -15 9 -14 -6 4
-37 -1 -55 -12 -48 -8 4 -9 -1 -4 -15 4 -15 1 -29 -11 -42 -16 -18 -16 -19 4
-19 11 0 22 6 25 13 2 7 8 8 13 3 5 -5 4 -11 -3 -13 -14 -5 -18 -33 -5 -33 4
0 18 7 30 16 21 15 22 14 22 -16 0 -22 -4 -29 -12 -24 -7 4 -3 -3 10 -15 19
-19 30 -21 61 -16 24 4 42 2 46 -4 4 -7 -12 -11 -47 -12 l-53 -2 43 -7 c24 -3
63 -4 87 0 27 4 48 3 55 -4 8 -8 13 -7 20 3 7 12 11 12 24 2 8 -7 28 -12 43
-11 63 4 83 0 77 -15 -4 -8 -16 -15 -28 -16 -11 -1 2 -7 30 -14 58 -14 165
-65 159 -75 -3 -4 4 -15 15 -25 11 -10 20 -22 20 -26 0 -4 11 -20 25 -35 16
-17 25 -22 25 -12 0 8 7 23 15 34 14 18 15 16 12 -23 -3 -35 -1 -43 17 -48 39
-12 66 -14 66 -4 0 6 10 9 23 7 14 -2 21 -9 21 -21 -1 -9 4 -17 12 -17 8 0 14
5 14 11 0 7 10 9 24 7 17 -4 22 -1 19 11 -3 15 32 37 90 55 10 3 16 10 12 15
-3 6 0 15 7 21 61 51 63 54 60 111 -2 24 3 39 12 42 8 3 12 14 9 25 -2 10 2
25 10 33 15 16 16 160 1 263 -4 28 -8 62 -10 76 -12 130 -17 159 -30 184 -8
16 -14 35 -14 42 0 8 -6 11 -15 8 -8 -4 -15 -1 -15 5 0 6 7 11 15 11 20 0 24
61 4 68 -5 2 -9 17 -9 33 0 24 -4 29 -25 29 -14 0 -25 5 -25 10 0 6 -11 21
-25 34 l-25 24 47 -5 c45 -4 47 -3 28 12 -11 8 -25 13 -32 11 -16 -7 -17 6 -1
22 8 8 9 15 2 22 -8 8 -14 7 -22 -3z m-56 -79 c-23 -13 -40 0 -25 18 9 11 15
12 26 2 12 -10 12 -13 -1 -20z m20 -178 c8 0 14 -4 14 -10 0 -19 -26 -10 -49
16 -18 21 -20 28 -10 35 10 6 16 1 22 -16 5 -14 15 -25 23 -25z m71 -86 c-3
-3 -12 -4 -19 -1 -8 3 -5 6 6 6 11 1 17 -2 13 -5z m-74 -54 c-3 -11 0 -20 6
-20 6 0 11 -5 11 -10 0 -6 -8 -5 -20 2 -23 15 -27 48 -6 48 9 0 12 -7 9 -20z
m83 -7 c-6 -6 -36 9 -36 18 0 5 9 4 20 -3 10 -7 18 -14 16 -15z m-202 -138 c3
-9 0 -15 -9 -15 -16 0 -27 14 -18 24 10 10 21 7 27 -9z m-77 -27 c3 -17 1 -19
-11 -9 -8 7 -12 19 -9 27 7 18 16 10 20 -18z m33 22 c0 -5 -5 -10 -11 -10 -5
0 -7 5 -4 10 3 6 8 10 11 10 2 0 4 -4 4 -10z m27 -46 c-3 -3 -12 -4 -19 -1 -8
3 -5 6 6 6 11 1 17 -2 13 -5z m-103 -33 c3 -5 -1 -11 -9 -15 -9 -3 -15 0 -15
9 0 16 16 20 24 6z m-49 -11 c3 -5 1 -10 -4 -10 -6 0 -11 5 -11 10 0 6 2 10 4
10 3 0 8 -4 11 -10z m-510 -189 c-3 -6 -11 -8 -17 -5 -6 4 -5 9 3 15 16 10 23
4 14 -10z m629 -132 c-8 -13 -34 -11 -34 2 0 6 -9 9 -20 6 -27 -7 -25 12 3 22
23 9 62 -13 51 -30z m1 -49 c3 -5 -1 -10 -9 -10 -9 0 -16 5 -16 10 0 6 4 10 9
10 6 0 13 -4 16 -10z m24 -114 c10 -11 7 -14 -14 -12 -25 1 -31 7 -18 19 10
11 19 8 32 -7z m121 -6 c0 -5 -2 -10 -4 -10 -3 0 -8 5 -11 10 -3 6 -1 10 4 10
6 0 11 -4 11 -10z"/>
<path d="M6390 8595 c0 -8 2 -15 4 -15 2 0 6 7 10 15 3 8 1 15 -4 15 -6 0 -10
-7 -10 -15z"/>
<path d="M5930 8576 c0 -9 5 -16 10 -16 6 0 10 4 10 9 0 6 -4 13 -10 16 -5 3
-10 -1 -10 -9z"/>
<path d="M6227 8560 c-9 -11 -13 -20 -7 -20 5 0 14 9 20 20 6 11 9 20 8 20 -2
0 -11 -9 -21 -20z"/>
<path d="M6270 8539 c0 -5 5 -7 10 -4 6 3 10 8 10 11 0 2 -4 4 -10 4 -5 0 -10
-5 -10 -11z"/>
<path d="M3795 8520 c3 -5 11 -10 16 -10 6 0 7 5 4 10 -3 6 -11 10 -16 10 -6
0 -7 -4 -4 -10z"/>
<path d="M6229 8503 c5 -10 9 -22 9 -28 0 -5 5 -11 11 -13 6 -2 11 2 11 10 -1
15 -24 48 -34 48 -4 0 -2 -8 3 -17z"/>
<path d="M3793 8473 c0 -10 6 -24 14 -31 11 -11 13 -10 13 8 0 12 9 24 23 30
19 8 18 9 -14 9 -27 1 -36 -3 -36 -16z"/>
<path d="M6315 8479 c-4 -6 -5 -12 -2 -15 2 -3 7 2 10 11 7 17 1 20 -8 4z"/>
<path d="M6202 8409 c-8 -12 -9 -18 -3 -14 7 3 11 -2 11 -14 0 -16 6 -21 25
-21 17 0 29 -7 35 -22 l9 -23 0 22 c1 25 -23 53 -47 54 -13 0 -11 3 6 12 19 8
25 8 32 -3 5 -8 11 -12 14 -9 11 10 -12 30 -40 35 -22 3 -32 -1 -42 -17z"/>
<path d="M3560 8400 c0 -5 5 -10 11 -10 5 0 7 5 4 10 -3 6 -8 10 -11 10 -2 0
-4 -4 -4 -10z"/>
<path d="M5910 8365 c0 -69 -11 -83 -43 -62 -29 19 -41 5 -25 -26 5 -10 8 -31
6 -46 -3 -35 18 -63 42 -56 10 3 20 0 23 -9 8 -20 -4 -28 -21 -13 -11 8 -14 8
-9 0 4 -6 3 -14 -3 -18 -5 -3 -10 -12 -10 -18 0 -7 4 -6 10 3 8 13 13 13 31 2
18 -12 23 -11 35 5 7 10 14 24 14 31 0 6 5 12 10 12 16 0 12 30 -5 36 -11 5
-12 11 -5 24 6 10 10 28 10 40 0 16 5 20 15 16 8 -3 15 0 15 5 0 6 -9 9 -20 6
-25 -6 -60 35 -53 62 3 11 0 28 -6 38 -8 14 -10 8 -11 -32z m20 -100 c0 -8 -6
-15 -14 -15 -17 0 -28 14 -19 24 12 12 33 6 33 -9z"/>
<path d="M5865 8390 c-8 -13 5 -13 25 0 13 8 13 10 -2 10 -9 0 -20 -4 -23 -10z"/>
<path d="M6315 8391 c-3 -5 -1 -12 5 -16 5 -3 10 1 10 9 0 18 -6 21 -15 7z"/>
<path d="M5885 8340 c-3 -5 -1 -10 4 -10 6 0 11 5 11 10 0 6 -2 10 -4 10 -3 0
-8 -4 -11 -10z"/>
<path d="M2484 8266 c-3 -8 -4 -23 -2 -33 3 -11 6 -6 9 15 6 34 2 42 -7 18z"/>
<path d="M3592 8233 c-1 -16 3 -23 11 -20 17 5 21 33 5 40 -9 3 -15 -4 -16
-20z"/>
<path d="M2500 8201 c0 -6 4 -13 10 -16 6 -3 7 1 4 9 -7 18 -14 21 -14 7z"/>
<path d="M3496 8145 c4 -8 8 -15 10 -15 2 0 4 7 4 15 0 8 -4 15 -10 15 -5 0
-7 -7 -4 -15z"/>
<path d="M5965 8140 c-8 -13 -1 -24 14 -19 6 3 7 10 2 18 -6 10 -10 10 -16 1z"/>
<path d="M3450 8101 c0 -11 4 -22 9 -25 4 -3 6 6 3 19 -5 30 -12 33 -12 6z"/>
<path d="M2746 8075 c4 -8 8 -15 10 -15 2 0 4 7 4 15 0 8 -4 15 -10 15 -5 0
-7 -7 -4 -15z"/>
<path d="M3520 8080 c0 -5 5 -10 11 -10 5 0 7 5 4 10 -3 6 -8 10 -11 10 -2 0
-4 -4 -4 -10z"/>
<path d="M2540 8060 c0 -5 5 -10 11 -10 5 0 7 5 4 10 -3 6 -8 10 -11 10 -2 0
-4 -4 -4 -10z"/>
<path d="M3300 8046 c0 -9 8 -16 18 -17 11 -1 8 -4 -8 -9 -16 -4 -33 -2 -47 6
-28 18 -33 17 -33 -2 0 -8 4 -13 8 -10 5 3 16 -4 25 -15 17 -20 36 -23 74 -13
16 5 21 12 19 32 -2 15 -10 27 -17 27 -8 0 -20 4 -26 8 -9 5 -13 3 -13 -7z
m15 -46 c-3 -5 -12 -10 -18 -10 -7 0 -6 4 3 10 19 12 23 12 15 0z"/>
<path d="M2780 8040 c0 -5 5 -10 11 -10 5 0 7 5 4 10 -3 6 -8 10 -11 10 -2 0
-4 -4 -4 -10z"/>
<path d="M3150 7990 c0 -5 5 -10 11 -10 5 0 7 5 4 10 -3 6 -8 10 -11 10 -2 0
-4 -4 -4 -10z"/>
<path d="M2600 7982 c0 -4 16 -23 35 -42 41 -39 46 -36 10 6 -14 16 -25 32
-25 37 0 4 -4 7 -10 7 -5 0 -10 -4 -10 -8z"/>
<path d="M2828 7963 c7 -3 16 -2 19 1 4 3 -2 6 -13 5 -11 0 -14 -3 -6 -6z"/>
<path d="M3238 7951 c-2 -9 7 -22 20 -28 33 -17 47 -16 32 2 -10 12 -10 15 4
15 19 0 22 20 4 21 -7 0 -23 2 -35 3 -14 2 -23 -4 -25 -13z"/>
<path d="M3345 7880 c3 -5 8 -10 11 -10 2 0 4 5 4 10 0 6 -5 10 -11 10 -5 0
-7 -4 -4 -10z"/>
<path d="M3200 7741 c0 -5 9 -7 20 -4 11 3 20 7 20 9 0 2 -9 4 -20 4 -11 0
-20 -4 -20 -9z"/>
<path d="M6360 7570 c0 -5 7 -7 15 -4 8 4 15 8 15 10 0 2 -7 4 -15 4 -8 0 -15
-4 -15 -10z"/>
<path d="M3562 7454 c1 -55 2 -59 5 -22 3 32 9 48 20 50 12 2 12 6 -6 22 l-21
19 2 -69z"/>
<path d="M6175 7500 c-3 -5 -1 -10 4 -10 6 0 11 5 11 10 0 6 -2 10 -4 10 -3 0
-8 -4 -11 -10z"/>
<path d="M3680 7470 c0 -5 5 -10 10 -10 6 0 10 5 10 10 0 6 -4 10 -10 10 -5 0
-10 -4 -10 -10z"/>
<path d="M3542 7310 c0 -19 2 -27 5 -17 2 9 2 25 0 35 -3 9 -5 1 -5 -18z"/>
<path d="M5470 7190 c0 -5 5 -10 10 -10 6 0 10 5 10 10 0 6 -4 10 -10 10 -5 0
-10 -4 -10 -10z"/>
<path d="M3511 7174 c0 -11 3 -14 6 -6 3 7 2 16 -1 19 -3 4 -6 -2 -5 -13z"/>
<path d="M3345 6850 c-3 -5 -1 -10 4 -10 6 0 11 5 11 10 0 6 -2 10 -4 10 -3 0
-8 -4 -11 -10z"/>
<path d="M3321 6738 c-1 -38 2 -46 14 -42 17 7 20 25 6 40 -5 5 -11 18 -14 29
-3 11 -5 -1 -6 -27z"/>
<path d="M3365 6741 c-7 -12 12 -24 25 -16 11 7 4 25 -10 25 -5 0 -11 -4 -15
-9z"/>
<path d="M3456 6675 c4 -8 7 -15 9 -15 2 0 5 7 9 15 3 9 0 15 -9 15 -9 0 -12
-6 -9 -15z"/>
<path d="M3330 6663 c0 -13 5 -23 10 -23 6 0 10 -8 10 -17 0 -24 46 -88 75
-103 14 -7 25 -17 25 -22 0 -4 17 -23 37 -42 33 -30 44 -34 95 -35 32 0 58 4
58 9 0 14 -18 21 -25 10 -8 -13 -45 -13 -45 0 0 6 -11 10 -23 10 -32 0 -61 32
-45 48 10 10 8 14 -10 18 -12 4 -22 10 -22 15 0 5 -7 9 -15 9 -8 0 -15 5 -15
10 0 6 -8 10 -17 10 -10 0 -24 12 -31 28 -11 23 -10 29 5 39 15 12 15 13 -5
13 -14 0 -22 6 -23 18 0 11 -2 12 -6 4 -4 -10 -8 -9 -19 5 -13 17 -13 17 -14
-4z m170 -157 c0 -2 -7 -6 -15 -10 -8 -3 -15 -1 -15 4 0 6 7 10 15 10 8 0 15
-2 15 -4z"/>
<path d="M3415 6669 c-4 -6 -5 -12 -2 -15 2 -3 7 2 10 11 7 17 1 20 -8 4z"/>
<path d="M3781 6574 c0 -11 3 -14 6 -6 3 7 2 16 -1 19 -3 4 -6 -2 -5 -13z"/>
<path d="M3548 6573 c7 -3 16 -2 19 1 4 3 -2 6 -13 5 -11 0 -14 -3 -6 -6z"/>
<path d="M3830 6569 c0 -5 5 -7 10 -4 6 3 10 8 10 11 0 2 -4 4 -10 4 -5 0 -10
-5 -10 -11z"/>
<path d="M3718 6423 c7 -3 16 -2 19 1 4 3 -2 6 -13 5 -11 0 -14 -3 -6 -6z"/>
<path d="M40 5555 c-11 -13 -10 -14 4 -9 9 3 16 10 16 15 0 13 -6 11 -20 -6z"/>
<path d="M116 3915 c-3 -8 -1 -15 4 -15 6 0 10 7 10 15 0 8 -2 15 -4 15 -2 0
-6 -7 -10 -15z"/>
<path d="M107 3823 c-3 -5 1 -14 9 -21 12 -11 14 -9 14 8 0 20 -14 27 -23 13z"/>
<path d="M111 3474 c0 -11 3 -14 6 -6 3 7 2 16 -1 19 -3 4 -6 -2 -5 -13z"/>
</g>
</svg>
