<?xml version="1.0" standalone="no"?>
<!DOCTYPE svg PUBLIC "-//W3C//DTD SVG 1.1//EN" 
"http://www.w3.org/Graphics/SVG/1.1/DTD/svg11.dtd">
<svg xmlns="http://www.w3.org/2000/svg" version="1.1" 
 width="32.000000pt" height="32.000000pt"
viewBox="0 0 512.000000 512.000000"
preserveAspectRatio="xMidYMid meet"

 style="shape-rendering:geometricPrecision; text-rendering:geometricPrecision; image-rendering:optimizeQuality; fill-rule:evenodd; clip-rule:evenodd" xmlns:xlink="http://www.w3.org/1999/xlink">
<g><path style="opacity:1" fill="#fefefe" d="M -0.5,-0.5 C 170.167,-0.5 340.833,-0.5 511.5,-0.5C 511.5,170.167 511.5,340.833 511.5,511.5C 340.833,511.5 170.167,511.5 -0.5,511.5C -0.5,340.833 -0.5,170.167 -0.5,-0.5 Z"/></g>
<g><path style="opacity:1" fill="#7091bd" d="M 238.5,1.5 C 337.682,-0.499444 414.515,39.5006 469,121.5C 513.72,199.112 518.387,279.112 483,361.5C 445.309,437.78 384.809,484.946 301.5,503C 201.422,518.317 118.922,487.484 54,410.5C -1.10249,335.125 -13.4358,253.125 17,164.5C 53.3521,76.7239 118.185,23.5572 211.5,5C 220.638,3.73349 229.638,2.56682 238.5,1.5 Z"/></g>
<g><path style="opacity:1" fill="#fe8028" d="M 381.5,69.5 C 382.833,69.5 384.167,69.5 385.5,69.5C 387.622,77.203 389.956,84.8697 392.5,92.5C 400.695,96.0575 408.695,99.8908 416.5,104C 416.355,104.772 416.022,105.439 415.5,106C 407.421,108.581 399.587,111.748 392,115.5C 389.928,123.214 387.761,130.881 385.5,138.5C 383.549,138.773 382.049,138.107 381,136.5C 378.823,129.306 376.657,122.139 374.5,115C 367.149,111.216 359.482,108.216 351.5,106C 350.978,105.439 350.645,104.772 350.5,104C 358.563,100.47 366.563,96.6363 374.5,92.5C 377.025,84.9227 379.358,77.2561 381.5,69.5 Z"/></g>
<g><path style="opacity:1" fill="#0a0a0c" d="M 321.5,94.5 C 335.223,94.0609 344.056,100.394 348,113.5C 351.761,130.003 351.094,146.336 346,162.5C 342.257,174.729 337.924,186.729 333,198.5C 332.575,202.869 332.908,207.203 334,211.5C 334.903,212.701 336.069,213.535 337.5,214C 363.534,214.704 389.534,216.037 415.5,218C 430.623,221.774 436.79,231.274 434,246.5C 431.762,253.475 428.595,259.975 424.5,266C 434.478,271.465 437.645,279.632 434,290.5C 431.449,295.778 428.282,300.611 424.5,305C 434.42,314.236 437.253,325.403 433,338.5C 431.135,341.358 428.968,343.858 426.5,346C 432.359,365.501 425.692,378.834 406.5,386C 389.72,391.112 372.72,395.112 355.5,398C 335.847,400.299 316.18,402.465 296.5,404.5C 269.784,401.874 243.117,398.874 216.5,395.5C 216.216,406.893 210.549,414.059 199.5,417C 164.167,417.667 128.833,417.667 93.5,417C 84.6667,414.833 79.1667,409.333 77,400.5C 76.0883,349.154 76.4217,297.82 78,246.5C 80.899,239.268 86.0657,234.435 93.5,232C 128.833,231.333 164.167,231.333 199.5,232C 210.955,236.127 217.121,244.294 218,256.5C 231.241,240.349 244.241,224.016 257,207.5C 264.702,191.479 274.369,176.812 286,163.5C 291.333,154.167 296.667,144.833 302,135.5C 305.604,124.689 309.604,114.023 314,103.5C 315.642,99.6997 318.142,96.6997 321.5,94.5 Z"/></g>
<g><path style="opacity:1" fill="#f0f0f0" d="M 325.5,104.5 C 330.797,104.95 334.631,107.617 337,112.5C 339.912,118.488 341.078,124.821 340.5,131.5C 338.591,153.401 333.091,174.401 324,194.5C 322.726,203.138 323.726,211.472 327,219.5C 331.529,222.916 336.696,224.416 342.5,224C 366.19,224.973 389.856,226.306 413.5,228C 422.776,229.925 426.276,235.425 424,244.5C 421.04,253.089 416.54,260.755 410.5,267.5C 415.12,270.947 419.62,274.614 424,278.5C 424.937,283.403 424.27,288.07 422,292.5C 416.959,297.598 411.459,302.098 405.5,306C 412.169,309.003 418.002,313.169 423,318.5C 424.492,323.411 424.826,328.411 424,333.5C 423.167,334.333 422.333,335.167 421.5,336C 414.833,339 408.167,342 401.5,345C 406.441,347.925 411.775,349.758 417.5,350.5C 421.047,362.058 417.38,370.225 406.5,375C 394.576,378.98 382.576,382.647 370.5,386C 345.873,389.162 321.207,391.995 296.5,394.5C 269.658,392.478 242.992,389.145 216.5,384.5C 216.19,346.821 216.69,309.154 218,271.5C 241.753,245.751 262.42,217.751 280,187.5C 293.254,171.345 304.254,153.679 313,134.5C 315.202,128.228 317.202,121.895 319,115.5C 320.674,111.476 322.841,107.809 325.5,104.5 Z"/></g>
<g><path style="opacity:1" fill="#5081cf" d="M 94.5,241.5 C 128.835,241.333 163.168,241.5 197.5,242C 200.562,243.061 203.062,244.894 205,247.5C 206.657,297.75 206.99,348.084 206,398.5C 204.558,402.275 202.058,405.108 198.5,407C 163.833,407.667 129.167,407.667 94.5,407C 90.5095,405.01 88.0095,401.843 87,397.5C 86.3333,348.5 86.3333,299.5 87,250.5C 88.6416,246.7 91.1416,243.7 94.5,241.5 Z"/></g>
</svg>
