<?xml version="1.0" encoding="UTF-8"?>
<!DOCTYPE svg PUBLIC "-//W3C//DTD SVG 1.1//EN" "http://www.w3.org/Graphics/SVG/1.1/DTD/svg11.dtd">
<svg xmlns="http://www.w3.org/2000/svg" version="1.1" width="512px" height="512px" style="shape-rendering:geometricPrecision; text-rendering:geometricPrecision; image-rendering:optimizeQuality; fill-rule:evenodd; clip-rule:evenodd" xmlns:xlink="http://www.w3.org/1999/xlink">
<g><path style="opacity:1" fill="#fefefe" d="M -0.5,-0.5 C 170.167,-0.5 340.833,-0.5 511.5,-0.5C 511.5,170.167 511.5,340.833 511.5,511.5C 340.833,511.5 170.167,511.5 -0.5,511.5C -0.5,340.833 -0.5,170.167 -0.5,-0.5 Z"/></g>
<g><path style="opacity:1" fill="#fe7f26" d="M 382.5,69.5 C 383.822,69.33 384.989,69.6634 386,70.5C 388.488,78.1205 390.822,85.7872 393,93.5C 400.216,96.908 407.716,99.7414 415.5,102C 418.003,103.784 418.003,105.451 415.5,107C 407.716,109.259 400.216,112.092 393,115.5C 390.822,123.213 388.488,130.88 386,138.5C 384.667,139.833 383.333,139.833 382,138.5C 379.512,130.88 377.178,123.213 375,115.5C 367.784,112.092 360.284,109.259 352.5,107C 349.833,105.333 349.833,103.667 352.5,102C 360.284,99.7414 367.784,96.908 375,93.5C 377.411,85.4361 379.911,77.4361 382.5,69.5 Z"/></g>
<g><path style="opacity:1" fill="#050505" d="M 322.5,94.5 C 334.044,93.8603 342.211,98.8603 347,109.5C 351.738,122.513 352.738,135.846 350,149.5C 346.262,166.046 340.929,182.046 334,197.5C 333.112,202.618 333.445,207.618 335,212.5C 335.5,213 336,213.5 336.5,214C 362.542,214.849 388.542,216.183 414.5,218C 434.385,223.274 440.219,235.44 432,254.5C 430.213,258.577 428.046,262.41 425.5,266C 437.364,274.026 439.531,284.193 432,296.5C 429.872,299.63 427.372,302.463 424.5,305C 435.085,314.017 438.251,325.184 434,338.5C 432.167,341.667 429.667,344.167 426.5,346C 428.505,349.016 429.505,352.349 429.5,356C 430.469,366.443 426.802,374.776 418.5,381C 411.569,384.977 404.236,387.977 396.5,390C 387.666,391.753 378.999,394.086 370.5,397C 346.004,399.833 321.504,402.666 297,405.5C 290.831,405.028 284.664,404.528 278.5,404C 258.204,400.839 237.871,398.005 217.5,395.5C 216.756,407.742 210.423,415.242 198.5,418C 164.167,418.667 129.833,418.667 95.5,418C 85.7586,415.89 79.5919,410.056 77,400.5C 76.0137,349.442 76.3471,298.442 78,247.5C 81.3508,239.48 87.1841,234.313 95.5,232C 129.833,231.333 164.167,231.333 198.5,232C 211.114,235.694 217.614,244.194 218,257.5C 232.048,240.454 245.714,223.121 259,205.5C 265.368,191.479 273.702,178.813 284,167.5C 290.252,157.33 296.252,146.997 302,136.5C 305.695,125.72 309.695,115.053 314,104.5C 315.978,100.362 318.811,97.0286 322.5,94.5 Z"/></g>
<g><path style="opacity:1" fill="#f2f2f2" d="M 326.5,104.5 C 331.223,105.369 334.723,108.036 337,112.5C 340.31,118.575 341.81,125.075 341.5,132C 341.322,138.913 340.489,145.746 339,152.5C 334.986,167.544 329.986,182.211 324,196.5C 322.644,204.529 323.644,212.195 327,219.5C 329.08,221.123 331.246,222.623 333.5,224C 359.863,225.029 386.196,226.362 412.5,228C 424.975,230.783 428.475,237.95 423,249.5C 419.828,256.518 415.661,262.852 410.5,268.5C 415.923,271.305 420.756,274.972 425,279.5C 426.224,285.723 424.557,291.056 420,295.5C 415.454,299.714 410.621,303.547 405.5,307C 412.241,309.454 418.075,313.287 423,318.5C 425.401,323.232 426.068,328.232 425,333.5C 423.482,335.348 421.649,336.848 419.5,338C 413.085,340.472 406.752,343.138 400.5,346C 406.258,348.065 412.092,349.898 418,351.5C 421.408,362.08 418.241,369.914 408.5,375C 395.683,379.629 382.683,383.629 369.5,387C 347.108,389.155 324.775,391.821 302.5,395C 273.973,393.235 245.64,389.735 217.5,384.5C 217.167,347.161 217.5,309.827 218.5,272.5C 233.872,254.626 248.705,236.292 263,217.5C 271.263,201.296 281.263,186.296 293,172.5C 300.174,160.822 306.841,148.822 313,136.5C 315.732,129.637 318.066,122.637 320,115.5C 321.674,111.476 323.841,107.809 326.5,104.5 Z"/></g>
<g><path style="opacity:1" fill="#5182d0" d="M 97.5,241.5 C 130.502,241.333 163.502,241.5 196.5,242C 201.573,243.406 205.073,246.572 207,251.5C 207.667,300.167 207.667,348.833 207,397.5C 205.631,402.54 202.464,406.04 197.5,408C 163.833,408.667 130.167,408.667 96.5,408C 91.1239,405.96 87.9572,402.127 87,396.5C 86.3333,348.5 86.3333,300.5 87,252.5C 88.6579,247.01 92.1579,243.343 97.5,241.5 Z"/></g>
</svg>
