<?xml version="1.0" standalone="no"?>
<!DOCTYPE svg PUBLIC "-//W3C//DTD SVG 20010904//EN"
 "http://www.w3.org/TR/2001/REC-SVG-20010904/DTD/svg10.dtd">
<svg version="1.0" xmlns="http://www.w3.org/2000/svg"
 width="512.000000pt" height="512.000000pt" viewBox="0 0 512.000000 512.000000"
 preserveAspectRatio="xMidYMid meet">

<g transform="translate(0.000000,512.000000) scale(0.100000,-0.100000)"
fill="#000000" stroke="none">
<path d="M3214 4151 c-41 -25 -85 -104 -119 -211 -15 -47 -38 -111 -51 -143
-36 -86 -189 -343 -249 -417 -69 -87 -125 -171 -165 -249 -34 -69 -141 -214
-329 -451 l-116 -145 -6 52 c-13 100 -82 179 -179 203 -31 7 -205 10 -550 8
-470 -3 -507 -4 -540 -22 -49 -26 -88 -64 -113 -111 -22 -40 -22 -40 -22 -800
0 -726 1 -762 19 -798 25 -51 71 -96 121 -118 37 -17 78 -19 560 -19 502 0
522 1 565 21 25 11 56 30 69 42 28 26 71 113 71 145 0 28 0 28 207 -3 563 -86
563 -86 938 -35 77 10 180 22 228 25 149 11 437 84 557 141 83 39 155 102 169
148 20 62 23 159 8 203 -14 41 -14 42 15 63 39 29 58 77 58 148 0 77 -23 141
-70 195 l-39 44 28 27 c84 80 109 207 58 285 -14 22 -37 47 -50 57 l-23 18 44
86 c95 186 58 318 -105 380 -68 25 -108 29 -488 40 -394 12 -375 7 -375 111 0
48 9 79 44 163 92 214 129 373 129 551 1 108 -3 140 -20 187 -59 161 -181 239
-279 179z m130 -122 c52 -61 70 -125 70 -244 0 -146 -42 -317 -124 -509 -66
-152 -73 -248 -27 -331 38 -67 76 -79 262 -82 300 -7 590 -22 628 -33 21 -6
52 -24 70 -40 28 -25 32 -34 31 -79 -1 -59 -52 -172 -108 -238 -20 -22 -36
-44 -36 -47 0 -3 18 -15 40 -26 22 -11 55 -34 75 -51 28 -25 35 -38 35 -69 0
-52 -50 -122 -134 -187 l-68 -53 59 -25 c67 -30 110 -67 129 -112 17 -38 18
-97 4 -124 -11 -20 -84 -59 -183 -99 -32 -12 -55 -26 -50 -30 4 -4 43 -15 85
-24 43 -10 81 -22 85 -28 3 -7 6 -41 5 -76 -2 -46 -8 -72 -22 -93 -29 -39
-143 -92 -280 -130 -63 -18 -137 -38 -163 -45 -27 -7 -124 -20 -215 -29 -92
-9 -174 -18 -182 -20 -8 -3 -92 -14 -186 -25 -160 -19 -178 -19 -300 -5 -132
16 -489 67 -601 86 l-63 11 0 552 1 551 87 101 c149 172 402 510 454 606 56
104 90 156 157 236 59 72 222 347 261 441 15 39 40 108 54 153 29 94 68 158
96 158 10 0 34 -19 54 -41z"/>
</g>
</svg>
